<svg width="33" height="33" viewBox="0 0 33 33" fill="none" xmlns="http://www.w3.org/2000/svg">
<path d="M29.6667 28.8334H3C2.45333 28.8334 2 29.2867 2 29.8334C2 30.38 2.45333 30.8334 3 30.8334H29.6667C30.2133 30.8334 30.6667 30.38 30.6667 29.8334C30.6667 29.2867 30.2133 28.8334 29.6667 28.8334Z" fill="#191A23"/>
<path opacity="0.4" d="M22.9999 3.16663H9.66659C5.66659 3.16663 4.33325 5.55329 4.33325 8.49996V29.8333H28.3333V8.49996C28.3333 5.55329 26.9999 3.16663 22.9999 3.16663Z" fill="#191A23"/>
<path d="M13.6665 23.5H9.6665C9.11984 23.5 8.6665 23.0467 8.6665 22.5C8.6665 21.9533 9.11984 21.5 9.6665 21.5H13.6665C14.2132 21.5 14.6665 21.9533 14.6665 22.5C14.6665 23.0467 14.2132 23.5 13.6665 23.5Z" fill="#191A23"/>
<path d="M23 23.5H19C18.4533 23.5 18 23.0467 18 22.5C18 21.9533 18.4533 21.5 19 21.5H23C23.5467 21.5 24 21.9533 24 22.5C24 23.0467 23.5467 23.5 23 23.5Z" fill="#191A23"/>
<path d="M13.6665 17.5H9.6665C9.11984 17.5 8.6665 17.0467 8.6665 16.5C8.6665 15.9533 9.11984 15.5 9.6665 15.5H13.6665C14.2132 15.5 14.6665 15.9533 14.6665 16.5C14.6665 17.0467 14.2132 17.5 13.6665 17.5Z" fill="#191A23"/>
<path d="M23 17.5H19C18.4533 17.5 18 17.0467 18 16.5C18 15.9533 18.4533 15.5 19 15.5H23C23.5467 15.5 24 15.9533 24 16.5C24 17.0467 23.5467 17.5 23 17.5Z" fill="#191A23"/>
<path d="M13.6665 11.5H9.6665C9.11984 11.5 8.6665 11.0467 8.6665 10.5C8.6665 9.95333 9.11984 9.5 9.6665 9.5H13.6665C14.2132 9.5 14.6665 9.95333 14.6665 10.5C14.6665 11.0467 14.2132 11.5 13.6665 11.5Z" fill="#191A23"/>
<path d="M23 11.5H19C18.4533 11.5 18 11.0467 18 10.5C18 9.95333 18.4533 9.5 19 9.5H23C23.5467 9.5 24 9.95333 24 10.5C24 11.0467 23.5467 11.5 23 11.5Z" fill="#191A23"/>
</svg>
