<svg width="20" height="20" viewBox="0 0 20 20" fill="none" xmlns="http://www.w3.org/2000/svg">
<path d="M18.3334 18.9583H1.66675C1.32508 18.9583 1.04175 18.6749 1.04175 18.3333C1.04175 17.9916 1.32508 17.7083 1.66675 17.7083H18.3334C18.6751 17.7083 18.9584 17.9916 18.9584 18.3333C18.9584 18.6749 18.6751 18.9583 18.3334 18.9583Z" fill="#191A23"/>
<path opacity="0.4" d="M17.4999 8.31657V18.3333H2.45825L2.49992 8.30823C2.49992 7.79989 2.73325 7.3166 3.14158 6.99994L8.97492 2.4666C9.57492 1.9916 10.4249 1.9916 11.0249 2.4666L12.1416 3.33325L15.8333 6.19992L16.8583 6.99994C17.2666 7.3166 17.4999 7.7999 17.4999 8.31657Z" fill="#191A23"/>
<path d="M10.8334 14.1667H9.16675C8.47508 14.1667 7.91675 14.7251 7.91675 15.4167V18.3334H12.0834V15.4167C12.0834 14.7251 11.5251 14.1667 10.8334 14.1667Z" fill="#191A23"/>
<path d="M7.91675 11.4584H6.25008C5.79175 11.4584 5.41675 11.0834 5.41675 10.6251V9.37508C5.41675 8.91675 5.79175 8.54175 6.25008 8.54175H7.91675C8.37508 8.54175 8.75008 8.91675 8.75008 9.37508V10.6251C8.75008 11.0834 8.37508 11.4584 7.91675 11.4584Z" fill="#191A23"/>
<path d="M13.75 11.4584H12.0833C11.625 11.4584 11.25 11.0834 11.25 10.6251V9.37508C11.25 8.91675 11.625 8.54175 12.0833 8.54175H13.75C14.2083 8.54175 14.5833 8.91675 14.5833 9.37508V10.6251C14.5833 11.0834 14.2083 11.4584 13.75 11.4584Z" fill="#191A23"/>
<path d="M15.8333 6.19992L12.1416 3.33325H14.9833C15.4416 3.33325 15.8166 3.69991 15.8166 4.15824L15.8333 6.19992Z" fill="#191A23"/>
</svg>
