<svg width="48" height="48" viewBox="0 0 48 48" fill="none" xmlns="http://www.w3.org/2000/svg">
<path opacity="0.4" d="M19.98 35.96C28.8055 35.96 35.96 28.8055 35.96 19.98C35.96 11.1545 28.8055 4 19.98 4C11.1545 4 4 11.1545 4 19.98C4 28.8055 11.1545 35.96 19.98 35.96Z" fill="#191A23"/>
<path d="M43.9399 31.9799C43.9399 38.5799 38.5799 43.9399 31.9799 43.9399C27.8999 43.9399 24.3199 41.8999 22.1599 38.7999C30.8799 37.8199 37.8199 30.8799 38.7999 22.1599C41.8999 24.3199 43.9399 27.8999 43.9399 31.9799Z" fill="#191A23"/>
<path d="M22.9 19.4201L18.1 17.7401C17.62 17.5801 17.52 17.5401 17.52 16.8401C17.52 16.3201 17.88 15.9001 18.34 15.9001H21.34C21.98 15.9001 22.5 16.4801 22.5 17.2001C22.5 18.0201 23.18 18.7001 24 18.7001C24.82 18.7001 25.5 18.0201 25.5 17.2001C25.5 14.9001 23.72 13.0201 21.5 12.9201V12.8201C21.5 12.0001 20.82 11.3201 20 11.3201C19.18 11.3201 18.5 11.9801 18.5 12.8201V12.9201H18.32C16.22 12.9201 14.5 14.6801 14.5 16.8601C14.5 18.7601 15.34 19.9801 17.08 20.5801L21.9 22.2601C22.38 22.4201 22.48 22.4601 22.48 23.1601C22.48 23.6801 22.12 24.1001 21.66 24.1001H18.66C18.02 24.1001 17.5 23.5201 17.5 22.8001C17.5 21.9801 16.82 21.3001 16 21.3001C15.18 21.3001 14.5 21.9801 14.5 22.8001C14.5 25.1001 16.28 26.9801 18.5 27.0801V27.2001C18.5 28.0201 19.18 28.7001 20 28.7001C20.82 28.7001 21.5 28.0201 21.5 27.2001V27.1001H21.68C23.78 27.1001 25.5 25.3401 25.5 23.1601C25.5 21.2601 24.64 20.0401 22.9 19.4201Z" fill="#191A23"/>
</svg>
