<?xml version="1.0" standalone="no"?>
<!DOCTYPE svg PUBLIC "-//W3C//DTD SVG 20010904//EN"
 "http://www.w3.org/TR/2001/REC-SVG-20010904/DTD/svg10.dtd">
<svg version="1.0" xmlns="http://www.w3.org/2000/svg"
 width="500.000000pt" height="369.000000pt" viewBox="0 0 500.000000 369.000000"
 preserveAspectRatio="xMidYMid meet">

<g transform="translate(0.000000,369.000000) scale(0.100000,-0.100000)"
fill="#000000" stroke="none">
<path d="M806 3365 c-2 -5 0 -19 5 -30 7 -19 8 -19 8 3 1 22 2 22 158 22 86 0
154 2 151 5 -10 10 -318 10 -322 0z"/>
<path d="M1163 3368 c-2 -5 54 -8 126 -8 l130 0 4 -62 4 -63 -1 69 -1 70 -128
0 c-71 1 -131 -2 -134 -6z"/>
<path d="M1488 2883 c-67 -4 -68 -4 -68 -32 0 -15 -3 -31 -7 -35 -4 -4 -9 -69
-10 -144 -2 -75 -5 -143 -8 -149 -2 -7 -14 -13 -25 -13 -16 0 -20 6 -20 33 0
22 3 28 9 18 5 -8 11 -9 15 -3 3 5 -1 12 -9 16 -16 6 -21 41 -7 50 5 3 6 43 4
90 -4 75 -2 86 12 86 9 0 16 5 16 11 0 6 -10 9 -22 7 -22 -3 -23 -8 -31 -143
-4 -77 -9 -146 -12 -152 -5 -15 -45 -17 -45 -3 0 6 4 10 9 10 5 0 7 9 4 20 -3
11 0 27 7 35 7 8 8 20 4 27 -10 16 -6 48 8 66 7 8 7 12 -1 12 -15 0 -14 43 1
58 9 9 9 15 0 24 -16 16 -15 28 3 28 8 0 15 5 15 10 0 11 -39 14 -41 3 -3 -16
-17 -145 -25 -232 -6 -66 -9 -71 -41 -71 -19 0 -24 4 -19 16 3 9 6 22 6 30 0
8 8 14 18 14 14 0 15 2 2 10 -10 6 -11 10 -2 10 7 0 12 13 12 30 0 17 -5 30
-11 30 -6 0 -7 6 -2 12 4 7 6 25 4 40 -2 20 2 28 13 28 9 0 16 7 16 15 0 8 -4
15 -9 15 -6 0 -9 9 -8 20 1 11 7 20 14 20 7 0 13 5 13 11 0 6 -10 9 -22 7 -21
-3 -24 -13 -43 -153 -20 -147 -21 -150 -45 -152 -14 -1 -19 0 -12 3 14 7 16
34 2 34 -15 0 -12 27 5 44 8 8 11 17 7 20 -5 3 -4 30 1 61 7 39 15 55 26 56
10 0 12 2 4 6 -19 7 -17 63 2 63 8 0 15 5 15 10 0 6 -9 10 -20 10 -11 0 -20
-2 -20 -5 0 -3 -6 -38 -14 -78 -8 -40 -17 -88 -20 -107 -9 -68 -19 -100 -34
-112 -12 -10 -14 -10 -8 0 4 7 2 12 -6 12 -17 0 -16 62 1 68 5 2 8 9 5 15 -2
7 5 55 15 107 18 85 20 112 6 98 -3 -2 -14 -47 -24 -99 -31 -148 -47 -203 -61
-207 -7 -3 -10 0 -6 7 4 6 0 11 -11 12 -16 0 -16 1 2 9 17 7 18 9 2 9 -16 1
-16 3 -2 31 8 16 15 38 15 50 0 11 5 20 12 20 8 0 9 3 2 10 -17 17 17 138 41
146 19 6 19 7 -3 11 -30 6 -33 3 -43 -49 -5 -24 -21 -90 -37 -148 -24 -90 -31
-105 -50 -108 -16 -3 -22 2 -21 15 0 10 3 13 6 6 2 -7 8 -13 12 -13 4 0 8 6 9
13 2 18 33 133 57 212 22 69 22 70 2 73 -26 5 -32 -6 -57 -109 -35 -147 -55
-194 -82 -196 -17 -1 -18 0 -4 4 13 3 15 7 7 13 -17 10 1 77 26 96 10 7 13 14
7 14 -15 0 -5 53 12 62 6 5 10 17 7 28 -3 11 -1 20 5 20 16 0 24 33 10 42 -10
6 -9 8 4 8 9 0 20 5 23 10 3 6 -5 10 -18 10 -23 0 -28 -11 -74 -152 -39 -123
-53 -154 -68 -156 -17 -3 -17 -1 -5 7 11 8 12 11 2 11 -10 0 -9 4 3 16 9 9 14
23 11 30 -3 8 -1 14 5 14 6 0 9 7 5 15 -3 8 -1 15 5 15 6 0 7 5 4 10 -4 6 -1
17 5 25 9 11 9 15 1 15 -9 0 -9 5 -1 20 6 11 17 20 26 20 11 0 12 4 5 18 -12
22 0 77 16 77 6 0 15 3 19 8 4 4 -4 7 -18 7 -29 0 -24 8 -88 -170 -22 -63 -45
-123 -50 -132 -12 -21 -3 -48 16 -48 8 0 14 -10 14 -25 0 -23 2 -24 28 -14 32
12 2036 25 2269 14 129 -6 153 -10 156 -24 4 -14 5 -14 6 1 1 15 23 17 245 18
189 0 245 -2 249 -12 3 -7 6 -8 6 -3 1 15 414 7 423 -8 6 -9 8 -9 8 1 0 16 64
15 115 -3 55 -20 60 -19 62 15 l2 30 -282 0 c-423 0 -815 11 -786 23 24 9 248
11 807 7 167 -1 306 1 310 5 8 8 -26 35 -44 35 -7 0 -24 11 -38 25 -14 14 -32
25 -41 25 -8 0 -15 5 -15 10 0 6 -6 10 -14 10 -8 0 -16 5 -18 10 -2 7 -14 7
-36 -1 -28 -9 -36 -9 -52 6 -12 11 -28 15 -43 11 -17 -4 -24 -1 -24 9 0 17 53
21 59 5 4 -14 68 -25 68 -12 0 16 -59 62 -80 62 -10 0 -25 9 -33 20 -8 11 -17
17 -20 14 -3 -4 -18 7 -32 24 -17 21 -31 29 -42 25 -11 -4 -14 -2 -9 5 4 7 1
12 -6 12 -8 0 -21 9 -30 19 -11 13 -26 18 -49 16 -19 -2 -43 -4 -53 -4 -16 -1
-13 -6 14 -26 20 -15 27 -25 18 -25 -8 0 -25 9 -38 20 -13 11 -29 20 -35 20
-7 0 -20 11 -29 25 -11 17 -26 25 -44 25 -26 0 -25 -1 13 -24 22 -12 39 -28
37 -35 -2 -9 5 -10 20 -6 13 4 20 4 16 0 -7 -7 28 -45 41 -45 3 0 17 -10 31
-22 14 -13 44 -36 68 -51 23 -15 40 -32 37 -37 -4 -7 -13 -6 -25 0 -11 6 -21
6 -25 1 -3 -5 5 -13 17 -17 13 -4 26 -11 29 -16 4 -6 15 -6 28 2 17 9 26 9 37
-1 11 -9 17 -9 29 1 11 9 23 6 59 -19 26 -18 47 -27 51 -21 3 5 1 10 -6 10
-10 0 -10 3 0 13 11 10 14 10 18 0 3 -7 11 -13 19 -13 8 0 14 -4 14 -10 0 -5
7 -10 15 -10 8 0 15 -4 15 -10 0 -5 5 -10 11 -10 6 0 17 -7 25 -15 26 -25 -5
-18 -42 10 -35 27 -69 32 -78 13 -5 -10 -7 -10 -12 0 -7 14 -44 16 -44 2 0 -5
5 -10 12 -10 6 0 9 -3 5 -6 -7 -8 -77 26 -77 37 0 5 -9 9 -20 9 -11 0 -20 5
-20 11 0 5 -5 7 -10 4 -6 -4 -8 -11 -5 -16 3 -5 -1 -6 -9 -3 -9 3 -16 10 -16
14 0 5 -14 12 -32 15 -17 4 -40 16 -52 26 -11 11 -25 19 -30 19 -6 0 -3 -7 7
-14 22 -17 22 -26 -3 -26 -11 0 -20 5 -20 10 0 6 -7 10 -15 10 -18 0 -20 -16
-2 -23 6 -3 -1 -4 -18 -3 -16 2 -24 1 -17 -1 6 -2 12 -9 12 -14 0 -6 8 -6 20
1 19 10 60 -4 60 -22 0 -4 13 -3 30 2 18 5 30 5 30 -1 0 -5 7 -9 16 -9 8 0 12
-5 9 -10 -5 -8 -11 -7 -21 1 -7 6 -21 9 -29 5 -21 -8 -76 4 -69 15 3 5 -4 9
-15 9 -12 0 -21 -4 -21 -10 0 -5 5 -10 12 -10 6 0 9 -3 6 -6 -4 -3 -21 2 -38
11 -21 11 -36 13 -42 7 -6 -6 0 -12 17 -16 37 -9 61 -34 47 -48 -5 -5 -20 -7
-32 -3 -18 6 -20 9 -9 16 11 7 11 9 1 9 -7 0 -11 4 -8 9 3 5 -5 12 -19 15 -14
4 -25 11 -25 16 0 6 -9 10 -20 10 -13 0 -18 -5 -14 -15 4 -8 1 -15 -6 -15 -6
0 -8 5 -5 10 3 6 0 10 -7 10 -7 0 -25 11 -40 24 -22 21 -57 41 -113 64 -5 2 5
-7 24 -22 28 -21 31 -27 18 -32 -10 -3 -24 -4 -31 -1 -10 4 -13 1 -10 -8 3 -8
14 -17 25 -20 10 -4 19 -11 19 -16 0 -17 -22 -9 -57 22 -33 29 -34 31 -14 36
20 5 20 6 4 19 -23 17 -39 18 -24 1 11 -14 5 -27 -11 -27 -5 0 -6 5 -3 10 3 6
-1 10 -10 10 -9 0 -14 4 -11 9 4 5 0 12 -6 15 -7 4 -3 4 8 2 32 -5 52 10 25
19 -12 3 -19 11 -16 16 4 5 0 9 -9 9 -8 0 -23 3 -33 7 -16 6 -16 4 2 -17 18
-21 18 -23 2 -17 -10 4 -25 7 -33 7 -8 0 -14 7 -14 15 0 8 -6 15 -14 15 -8 0
-16 7 -20 15 -3 8 -12 15 -21 15 -8 0 -15 7 -15 15 0 15 -47 51 -56 43 -6 -6
8 -20 61 -63 74 -59 82 -76 26 -57 -17 6 -31 9 -31 6 0 -9 28 -34 38 -34 6 0
12 -7 16 -15 11 -31 -45 -6 -89 38 -12 12 -26 16 -41 13 -13 -4 -29 0 -38 9
-8 8 -19 15 -25 15 -6 0 -11 4 -11 10 0 5 -14 22 -30 37 -20 17 -27 30 -21 36
7 7 28 -8 61 -39 59 -57 68 -61 76 -39 6 14 9 14 30 0 13 -8 25 -11 29 -6 7
12 -30 25 -70 26 -20 0 -31 6 -33 18 -4 21 11 22 31 3 8 -8 19 -11 26 -6 9 5
-3 16 -36 34 -26 15 -42 22 -35 15 15 -16 16 -29 1 -29 -13 0 -94 70 -82 70 5
0 2 4 -5 9 -11 7 -11 9 1 14 8 3 23 -3 33 -14 9 -10 24 -19 33 -19 14 1 13 3
-2 14 -12 10 -15 16 -7 21 6 4 23 -5 37 -19 14 -14 30 -26 34 -26 15 0 10 18
-7 28 -12 7 -13 11 -5 16 6 4 22 -2 34 -13 75 -69 80 -73 88 -59 6 9 -1 17
-24 28 -46 22 -60 37 -41 44 9 3 32 -12 62 -40 29 -27 39 -42 27 -39 -18 6
-18 5 -2 -5 9 -6 21 -9 26 -6 5 3 14 -1 21 -9 11 -13 7 -15 -21 -15 -28 -1
-31 -2 -16 -11 9 -6 27 -7 38 -4 14 5 19 3 15 -4 -5 -7 -1 -8 9 -4 10 3 20 1
24 -5 4 -7 12 -8 21 -2 12 7 11 10 -5 16 -11 5 -28 18 -38 31 -10 13 -22 23
-27 23 -16 0 -81 71 -75 81 7 11 -2 11 -210 11 -193 -1 -175 0 -175 -13 0 -7
11 -9 29 -6 23 5 32 1 44 -16 8 -12 42 -50 76 -83 44 -44 58 -63 47 -67 -20
-8 -47 14 -49 40 -1 15 -12 27 -32 35 -38 15 -58 35 -50 48 3 5 1 10 -5 10 -6
0 -8 5 -5 10 3 6 -3 10 -14 10 -12 0 -21 -3 -21 -8 0 -4 39 -48 87 -97 48 -50
87 -94 85 -98 -1 -5 2 -6 8 -2 5 3 10 2 10 -3 0 -6 11 -20 25 -33 13 -13 25
-27 25 -31 0 -14 -28 -8 -34 7 -3 8 -12 15 -21 15 -8 0 -15 6 -15 13 0 6 -16
28 -35 47 -19 19 -35 38 -35 42 0 4 -9 8 -21 8 -11 0 -18 4 -14 9 6 11 -13 26
-22 18 -3 -3 13 -24 36 -47 23 -23 38 -46 35 -52 -4 -7 -9 -6 -14 2 -4 6 -25
12 -46 13 -22 0 -46 6 -54 12 -42 33 -52 22 -14 -16 26 -26 46 -39 54 -34 10
6 10 9 0 15 -8 5 -9 10 -2 14 10 6 33 -13 97 -84 29 -32 34 -43 18 -38 -5 2
-7 6 -6 10 1 3 -11 9 -27 13 -17 4 -28 11 -24 16 3 5 -2 9 -10 9 -9 0 -16 6
-16 14 0 18 -16 29 -30 21 -5 -3 6 -22 26 -41 33 -35 37 -54 10 -54 -18 0 -49
37 -42 49 4 5 -3 12 -14 16 -11 3 -20 11 -20 16 0 5 -7 9 -15 9 -13 0 -19 11
-17 31 1 4 -7 13 -16 22 -50 46 -132 135 -132 144 -1 15 -39 58 -46 51 -7 -8
49 -86 106 -148 51 -56 83 -100 77 -106 -3 -4 -13 1 -22 10 -9 9 -23 16 -31
16 -8 0 -14 8 -14 18 0 11 -11 24 -25 30 -14 6 -25 16 -25 22 0 10 -58 70 -68
70 -5 0 1 -8 102 -129 44 -53 77 -86 74 -74 -8 32 20 38 49 12 31 -30 31 -53
-2 -45 -14 4 -34 1 -45 -6 -15 -10 -25 -10 -38 -2 -12 8 -22 8 -33 1 -9 -6
-25 -7 -35 -3 -15 6 -16 9 -4 16 12 8 12 10 -3 16 -9 3 -15 10 -12 14 3 4 -5
10 -16 13 -12 3 -19 10 -15 15 3 5 -1 9 -9 9 -16 0 -11 -12 18 -44 24 -27 16
-42 -19 -35 -14 2 -21 8 -15 11 6 4 -16 34 -51 71 -34 36 -57 58 -52 50 25
-43 70 -106 79 -112 18 -13 -5 -22 -33 -12 -18 6 -27 17 -28 32 -1 13 -17 40
-36 60 -51 54 -82 102 -66 102 7 0 -2 12 -20 26 -19 15 -31 32 -28 40 3 8 -5
21 -19 30 -28 18 -32 39 -11 47 10 4 28 -17 58 -65 42 -71 113 -159 89 -110
-7 12 -16 22 -22 22 -6 0 -8 4 -4 9 3 5 1 12 -5 16 -6 4 -7 11 -4 17 5 7 2 8
-5 4 -8 -5 -11 -3 -9 7 2 8 -10 27 -25 41 -15 14 -25 31 -22 36 3 6 0 10 -7
10 -8 0 -6 5 5 11 14 8 22 5 38 -15 11 -15 25 -23 31 -20 7 5 5 11 -6 19 -14
11 -15 13 -1 18 9 4 21 -3 31 -19 9 -13 19 -22 22 -20 3 3 0 12 -7 20 -9 11
-7 15 9 19 13 3 26 -2 36 -16 11 -14 14 -16 11 -5 -7 19 21 34 36 19 7 -7 16
-7 29 0 15 8 23 4 43 -18 13 -15 25 -31 25 -34 0 -4 8 -10 17 -14 12 -4 8 4
-10 23 -23 24 -25 31 -14 40 10 8 17 8 24 1 8 -8 17 -8 31 0 15 8 23 7 32 -4
7 -8 20 -15 29 -14 12 0 12 2 -3 8 -19 7 -19 8 0 16 18 7 18 8 -4 14 -33 9
-602 2 -602 -7 0 -5 7 -17 16 -28 12 -15 15 -15 10 -2 -6 20 19 32 32 15 5 -7
20 -32 33 -57 17 -33 24 -40 27 -27 2 10 -4 27 -14 38 -17 19 -17 19 5 16 16
-3 48 -41 112 -136 49 -73 89 -136 89 -141 0 -5 5 -10 12 -12 17 -6 0 -28 -22
-28 -11 0 -24 9 -30 20 -7 14 -8 20 0 20 6 0 3 11 -6 25 -9 14 -23 25 -30 25
-8 0 -15 5 -15 10 -1 6 -3 15 -4 20 -1 6 -3 15 -4 20 -1 13 -31 13 -31 1 0 -5
10 -22 23 -38 36 -44 57 -80 50 -87 -10 -10 -45 -7 -38 4 3 6 -1 10 -10 10
-11 0 -15 5 -11 16 3 8 2 12 -4 9 -9 -6 -33 29 -25 37 3 3 -7 15 -21 29 -26
24 -26 23 5 -32 17 -31 31 -61 31 -67 0 -16 -33 -15 -48 0 -15 15 -16 32 -2
23 22 -14 8 4 -15 19 l-26 17 15 -36 15 -35 -32 0 c-24 0 -28 3 -17 10 11 7
11 10 2 10 -7 0 -11 4 -7 9 3 6 -1 13 -8 18 -8 4 -26 29 -41 55 -20 34 -23 47
-14 51 9 4 8 6 -3 6 -16 1 -21 10 -72 121 -22 50 -23 56 -8 67 14 11 12 12
-11 13 -16 0 -28 -4 -28 -8 0 -5 38 -85 85 -177 46 -93 82 -172 79 -177 -9
-14 -33 -9 -43 10 -10 19 -11 23 -11 52 0 11 -7 20 -15 20 -8 0 -16 6 -17 13
0 6 -2 17 -2 23 -1 6 -9 19 -19 28 -9 10 -17 30 -17 46 0 16 -7 33 -16 38 -10
5 -17 23 -18 40 -1 18 -9 41 -19 52 -9 11 -12 20 -7 20 6 0 10 5 10 10 0 6 -9
10 -21 10 -32 0 -30 -3 83 -250 16 -36 34 -73 39 -83 7 -14 5 -19 -13 -26 -13
-5 -27 -6 -33 -3 -5 3 -40 5 -78 4 -68 -1 -69 -1 -64 24 3 17 0 24 -10 24 -11
0 -13 -7 -9 -25 6 -23 3 -25 -25 -25 -28 0 -31 3 -27 25 3 14 1 25 -4 25 -6 0
-8 7 -4 15 3 8 1 15 -4 15 -11 0 -31 70 -24 82 3 4 1 8 -5 8 -11 0 -33 69 -25
81 3 5 -2 19 -11 32 -15 23 -14 25 5 30 24 6 22 10 74 -146 37 -108 41 -116
57 -100 7 7 6 15 -5 26 -21 21 -38 67 -32 84 3 8 2 12 -3 9 -5 -3 -12 2 -15
11 -4 9 -1 20 6 25 9 5 8 8 -6 8 -14 0 -17 6 -14 25 4 17 0 29 -10 34 -14 8
-14 11 -2 27 8 10 10 15 3 11 -6 -4 -14 -3 -17 2 -3 5 3 11 13 14 16 4 24 -8
47 -72 15 -42 34 -87 41 -101 7 -14 13 -29 13 -33 0 -4 8 -27 19 -50 10 -23
21 -49 25 -57 3 -8 3 0 0 19 -5 26 -3 32 7 27 8 -4 4 1 -8 10 -22 15 -34 52
-14 40 5 -4 7 3 4 14 -3 11 -12 20 -20 20 -10 0 -14 7 -10 19 3 12 -1 22 -10
25 -8 3 -11 10 -8 16 3 5 1 10 -5 10 -7 0 -9 8 -5 19 3 11 0 21 -9 24 -20 8
-24 59 -6 74 12 10 -25 12 -181 13 -108 0 -229 2 -270 4 -41 2 -104 1 -141 -1z
m962 -39 c0 -12 -4 -12 -20 -2 -13 8 -16 15 -8 19 15 10 28 2 28 -17z m655
-11 c9 -13 14 -27 12 -30 -8 -8 -57 28 -51 38 3 5 -3 9 -13 9 -14 0 -15 2 -4
9 19 12 37 4 56 -26z m-1196 -118 c12 -38 23 -81 26 -95 2 -14 9 -41 14 -59
11 -37 1 -54 -26 -44 -12 5 -12 7 -1 14 10 7 10 9 -2 9 -13 0 -13 1 0 10 10 6
11 10 3 10 -7 0 -13 9 -13 19 0 10 -7 22 -16 25 -9 3 -14 12 -11 19 2 6 0 20
-5 30 -6 12 -6 23 1 31 8 10 5 19 -10 37 -15 18 -19 33 -16 57 4 21 2 32 -6
32 -7 0 -3 7 8 16 19 14 20 13 27 -13 3 -15 16 -59 27 -98z m-130 20 c7 -38
19 -99 27 -133 17 -72 14 -92 -15 -92 -15 0 -21 9 -25 33 -3 17 -15 84 -26
147 -24 138 -24 128 -2 132 22 5 26 -3 41 -87z m75 -60 c34 -150 34 -164 -1
-165 -14 0 -16 8 -38 118 -9 46 -14 90 -11 97 3 8 1 15 -4 17 -4 2 -11 19 -15
40 -6 30 -4 37 12 40 10 2 19 4 20 3 1 -1 18 -68 37 -150z m100 98 c9 -32 29
-100 46 -152 16 -52 27 -98 24 -102 -3 -5 -14 -9 -25 -9 -16 0 -18 5 -13 25 4
18 1 32 -11 45 -9 10 -18 30 -19 44 0 14 -4 26 -7 26 -7 0 -19 48 -22 90 -1
14 -5 27 -9 30 -8 7 2 60 12 60 4 0 15 -26 24 -57z m-359 -78 c12 -196 14
-180 -20 -182 -26 -3 -28 -1 -13 9 15 11 15 13 1 23 -13 10 -14 15 -3 35 9 18
10 25 1 28 -13 4 -15 52 -3 52 5 0 9 7 9 15 0 8 -5 15 -10 15 -5 0 -6 7 -3 16
4 10 2 13 -7 9 -6 -4 -4 0 6 8 13 11 14 16 5 19 -19 7 -18 62 1 69 9 4 19 4
22 0 4 -3 10 -55 14 -116z m68 -28 c10 -76 15 -142 12 -148 -14 -22 -34 -8
-30 20 2 16 -2 40 -9 53 -16 30 -18 85 -5 94 6 3 4 15 -6 30 -15 24 -15 69 0
94 14 23 22 -6 38 -143z m50 101 c4 -29 12 -84 18 -123 19 -110 17 -130 -7
-133 -18 -3 -23 4 -28 33 -4 19 -4 40 -1 45 3 6 3 16 -2 23 -4 6 -8 17 -9 22
-1 10 -16 139 -19 160 -1 12 15 25 31 25 6 0 14 -24 17 -52z m-252 25 c2 -10
4 -76 4 -148 l0 -130 -25 -3 c-18 -2 -21 0 -11 7 11 7 11 10 -4 12 -18 4 -18
5 -1 22 10 9 13 17 7 17 -17 0 -15 227 2 233 21 9 25 8 28 -10z m62 -5 c3 -13
6 -54 7 -93 6 -196 7 -180 -19 -183 -15 -2 -21 0 -17 7 4 6 2 11 -3 11 -6 0
-11 7 -11 15 0 8 7 15 15 15 8 0 15 5 15 10 0 6 -6 10 -13 10 -9 0 -13 19 -14
65 -1 36 3 65 8 65 5 0 9 7 9 16 0 8 -4 12 -10 9 -11 -7 -14 57 -3 68 13 14
31 6 36 -15z m2407 12 c11 -6 24 -18 29 -28 8 -15 4 -17 -30 -17 -27 -1 -34 2
-24 8 12 6 13 13 5 28 -12 21 -7 24 20 9z m26 -64 c13 -10 25 -11 35 -5 12 7
12 9 0 9 -8 0 -11 3 -8 6 6 7 51 -19 75 -43 11 -11 11 -13 -2 -13 -9 0 -16 4
-16 9 0 14 -32 18 -57 8 -16 -7 -26 -5 -38 7 -9 9 -13 16 -8 16 4 0 1 5 -7 10
-8 5 -10 10 -5 10 6 0 20 -6 31 -14z m-663 -151 c17 -16 15 -35 -4 -35 -6 0
-7 5 -4 10 4 6 -7 13 -24 16 -18 4 -33 14 -37 26 -3 11 -20 32 -37 47 -20 18
-27 32 -22 41 6 9 22 -1 59 -38 28 -28 59 -59 69 -67z m725 98 c16 -16 16 -16
-1 -10 -10 4 -23 7 -28 7 -5 0 -9 5 -9 10 0 15 20 12 38 -7z m-3041 -15 c-3
-8 -6 -5 -6 6 -1 11 2 17 5 13 3 -3 4 -12 1 -19z m2331 -35 c32 -27 60 -52 64
-58 4 -6 8 -2 8 8 0 9 -8 17 -17 18 -14 0 -12 3 5 10 16 6 28 5 37 -4 38 -33
45 -37 45 -27 0 6 -11 21 -25 34 -22 20 -24 36 -5 36 13 0 50 -37 43 -44 -3
-3 -1 -6 6 -6 7 0 24 -9 38 -20 14 -11 22 -20 17 -20 -5 0 4 -9 19 -19 21 -14
25 -21 16 -27 -7 -4 -14 -3 -17 4 -2 7 -13 12 -23 12 -11 0 -18 4 -14 9 7 13
-30 24 -55 16 -10 -3 -28 -1 -40 5 -26 14 -26 -1 0 -18 28 -17 25 -32 -6 -32
-17 0 -28 6 -31 20 -3 11 -10 20 -16 20 -6 0 -8 3 -4 6 7 7 -29 44 -44 44 -5
0 -7 4 -4 10 3 5 -6 12 -20 16 -13 3 -23 10 -20 14 3 5 -4 11 -15 15 -11 4
-18 11 -15 16 9 14 13 12 73 -38z m887 7 c3 -5 -1 -10 -9 -10 -9 0 -16 5 -16
10 0 6 4 10 9 10 6 0 13 -4 16 -10z m-1041 -55 c23 -27 47 -45 60 -45 15 0 17
3 7 9 -9 6 -10 11 -2 15 11 7 60 -23 61 -37 0 -5 -13 -6 -29 -2 -17 3 -32 2
-36 -4 -9 -15 -33 -1 -79 45 -33 33 -47 64 -28 64 4 0 24 -20 46 -45z m-2198
-10 c-4 -14 -10 -25 -15 -25 -5 0 -4 16 2 36 12 39 23 29 13 -11z m2670 11 c7
-8 19 -17 26 -19 10 -4 10 -8 -2 -16 -8 -5 -18 -7 -23 -4 -5 3 -4 9 3 13 8 5
3 10 -14 14 -14 3 -26 11 -26 16 0 15 19 12 36 -4z m-287 -43 c24 -20 18 -33
-14 -33 -26 0 -39 22 -22 39 14 14 13 14 36 -6z m731 9 c0 -4 14 -13 30 -19
37 -14 40 -36 5 -31 -14 2 -24 6 -23 9 2 4 -6 16 -16 28 -11 12 -14 21 -8 21
7 0 12 -4 12 -8z m-583 -17 c3 -9 2 -19 -2 -23 -4 -4 -10 -1 -12 6 -3 6 -11
12 -19 12 -9 0 -12 5 -9 10 9 15 35 12 42 -5z m148 3 c6 0 18 3 28 7 13 5 16
3 11 -8 -4 -12 0 -14 18 -10 20 6 21 4 10 -9 -13 -16 -56 -13 -46 3 3 5 0 9
-5 9 -6 0 -11 -4 -11 -10 0 -5 -12 -10 -27 -10 -22 0 -25 2 -13 10 13 8 12 10
-3 10 -10 0 -15 5 -12 11 4 6 14 7 24 3 9 -3 21 -6 26 -6z m105 2 c0 -5 -5
-10 -11 -10 -5 0 -7 5 -4 10 3 6 8 10 11 10 2 0 4 -4 4 -10z m225 -10 c17 -19
17 -20 1 -20 -9 0 -14 5 -11 10 9 15 -21 12 -34 -4 -14 -17 -58 -9 -58 10 0
11 8 13 33 8 18 -3 34 -1 38 5 9 14 10 14 31 -9z m89 0 c15 0 17 -3 8 -12 -9
-9 -17 -9 -36 2 -14 7 -23 17 -20 22 4 6 11 5 17 -1 6 -6 20 -11 31 -11z
m-274 -10 c0 -5 -7 -10 -15 -10 -8 0 -15 5 -15 10 0 6 7 10 15 10 8 0 15 -4
15 -10z m480 -10 c0 -5 -2 -10 -4 -10 -3 0 -8 5 -11 10 -3 6 -1 10 4 10 6 0
11 -4 11 -10z m125 0 c3 -5 -1 -10 -10 -10 -9 0 -13 5 -10 10 3 6 8 10 10 10
2 0 7 -4 10 -10z m-3497 -37 c-15 -2 -42 -2 -60 0 -18 2 -6 4 27 4 33 0 48 -2
33 -4z"/>
<path d="M3361 2875 c0 -5 13 -20 29 -33 20 -16 31 -19 36 -11 4 7 0 17 -9 24
-9 7 -14 15 -11 18 4 3 20 -7 37 -24 22 -22 33 -27 41 -19 8 8 6 15 -6 24 -10
7 -15 16 -11 19 3 4 12 -2 20 -13 15 -21 43 -27 43 -10 0 6 -5 10 -12 10 -9 0
-9 3 0 12 8 8 15 9 20 3 10 -15 47 -42 39 -29 -4 7 4 9 24 6 16 -2 34 -13 40
-24 9 -17 8 -18 -10 -9 -11 6 -28 11 -38 11 -14 -1 -13 -4 7 -15 32 -18 51
-19 75 -1 18 13 17 14 -10 27 -33 17 -34 35 0 31 12 -2 26 2 30 8 5 9 -37 11
-164 8 -107 -2 -171 -7 -170 -13z"/>
<path d="M3710 2879 c0 -7 11 -9 29 -6 17 4 36 0 47 -8 27 -20 51 -20 34 0
-17 21 -3 19 36 -5 18 -12 35 -17 38 -11 4 5 -3 12 -14 16 -11 3 -20 11 -20
16 0 5 -34 9 -75 9 -49 0 -75 -4 -75 -11z"/>
<path d="M2100 2870 c0 -15 44 -128 84 -213 20 -43 36 -81 36 -83 0 -6 30 -37
31 -32 7 31 5 41 -10 45 -20 5 -43 57 -34 79 3 9 -1 14 -12 14 -10 0 -15 7
-13 18 1 9 -5 28 -14 42 -9 14 -15 37 -13 53 2 18 -1 27 -11 27 -7 0 -18 9
-24 20 -9 17 -7 22 12 30 22 8 22 9 -4 9 -16 1 -28 -3 -28 -9z"/>
<path d="M2270 2876 c0 -16 123 -251 141 -271 18 -19 8 4 -31 71 -22 38 -38
75 -35 82 2 6 0 12 -5 12 -12 0 -39 51 -43 81 -3 20 -27 41 -27 25z"/>
<path d="M3684 2847 c11 -7 30 -22 43 -34 28 -27 65 -53 75 -53 19 0 5 18 -26
35 -19 11 -32 23 -29 28 3 4 -4 11 -16 14 -12 3 -21 9 -21 14 0 5 -10 9 -22 8
-22 0 -22 -1 -4 -12z"/>
<path d="M2879 2821 c13 -24 54 -50 45 -29 -3 7 -16 21 -30 32 -26 18 -26 18
-15 -3z"/>
<path d="M2960 2796 c19 -19 37 -30 39 -24 4 11 -46 58 -63 58 -5 0 5 -15 24
-34z"/>
<path d="M3530 2826 c0 -2 7 -6 15 -10 8 -3 15 -1 15 4 0 6 -7 10 -15 10 -8 0
-15 -2 -15 -4z"/>
<path d="M2710 2812 c0 -5 9 -17 20 -27 22 -20 26 -9 6 18 -14 18 -26 22 -26
9z"/>
<path d="M2360 2803 c0 -4 8 -20 18 -34 13 -21 19 -24 29 -14 9 10 5 17 -18
34 -16 12 -29 18 -29 14z"/>
<path d="M2600 2802 c0 -16 41 -72 52 -72 10 0 -3 24 -31 60 -12 14 -21 19
-21 12z"/>
<path d="M2660 2802 c0 -5 7 -15 15 -22 8 -7 15 -9 15 -6 0 4 -7 14 -15 22 -8
9 -15 11 -15 6z"/>
<path d="M3447 2790 c17 -10 37 -28 43 -39 6 -12 17 -21 24 -21 15 0 30 -29
21 -38 -3 -3 -11 0 -17 6 -17 17 -39 15 -32 -2 8 -21 47 -28 57 -10 8 14 11
14 32 0 19 -13 24 -13 28 -2 5 12 12 11 40 -2 19 -10 33 -20 30 -24 -6 -11 9
-10 26 1 14 9 41 -1 69 -26 7 -7 20 -13 28 -13 13 0 13 2 -1 16 -22 22 -10 31
14 10 18 -16 21 -16 66 6 34 16 49 19 52 11 2 -7 11 -9 18 -7 11 5 12 9 2 19
-7 7 -15 11 -19 8 -5 -2 -8 1 -8 6 0 6 -7 11 -15 11 -8 0 -15 4 -15 9 0 13
-30 22 -93 26 -29 3 -46 1 -39 -4 8 -5 -9 -7 -42 -6 -31 1 -56 0 -56 -2 0 -2
9 -12 20 -23 18 -18 21 -18 26 -5 7 17 43 11 56 -9 5 -7 8 -4 8 8 0 14 5 17
22 13 12 -3 30 -2 40 4 14 8 24 4 45 -17 l26 -26 -24 7 c-13 4 -30 12 -37 18
-7 5 -16 7 -19 3 -4 -4 -2 -10 4 -14 6 -4 -26 -7 -72 -6 -64 0 -87 4 -100 17
-9 9 -24 17 -32 17 -9 0 -14 3 -10 6 8 9 -28 41 -55 49 l-23 6 25 -20 c14 -11
28 -21 33 -21 10 0 9 -40 -2 -40 -4 0 -20 12 -35 26 -14 15 -26 31 -26 35 0 5
-7 9 -15 9 -9 0 -18 6 -21 14 -3 8 -19 19 -36 25 -45 16 -47 14 -11 -9z m410
-136 c-3 -3 -12 -4 -19 -1 -8 3 -5 6 6 6 11 1 17 -2 13 -5z"/>
<path d="M3683 2796 c5 -13 2 -15 -21 -10 l-27 5 25 -20 c14 -12 30 -25 35
-29 6 -5 22 -4 36 2 29 12 26 17 -25 50 -25 16 -28 16 -23 2z m22 -26 c-3 -5
-11 -10 -16 -10 -6 0 -7 5 -4 10 3 6 11 10 16 10 6 0 7 -4 4 -10z"/>
<path d="M3510 2790 c20 -13 43 -13 35 0 -3 6 -16 10 -28 10 -18 0 -19 -2 -7
-10z"/>
<path d="M3570 2790 c8 -5 20 -10 25 -10 6 0 3 5 -5 10 -8 5 -19 10 -25 10 -5
0 -3 -5 5 -10z"/>
<path d="M2867 2765 c6 -11 24 -31 39 -45 l28 -25 -22 31 c-11 17 -29 37 -38
45 -16 13 -16 12 -7 -6z"/>
<path d="M3620 2750 c15 -11 26 -15 29 -8 4 12 -17 28 -39 28 -10 0 -7 -7 10
-20z"/>
<path d="M2690 2756 c0 -2 8 -10 18 -17 15 -13 16 -12 3 4 -13 16 -21 21 -21
13z"/>
<path d="M2464 2722 c20 -39 37 -50 33 -22 -2 11 -14 28 -26 36 l-23 16 16
-30z"/>
<path d="M2973 2714 c15 -13 33 -24 39 -24 18 0 -21 37 -45 43 -20 5 -19 3 6
-19z"/>
<path d="M2410 2714 c0 -7 9 -22 20 -35 10 -13 19 -19 20 -13 0 7 -9 22 -20
35 -10 13 -19 19 -20 13z"/>
<path d="M2736 2695 c21 -32 36 -32 21 0 -7 14 -18 25 -25 25 -9 0 -8 -7 4
-25z"/>
<path d="M2685 2686 c10 -14 21 -26 26 -26 17 0 9 18 -17 35 l-25 16 16 -25z"/>
<path d="M2786 2635 c18 -27 34 -33 34 -12 0 17 -20 37 -37 37 -10 0 -10 -6 3
-25z"/>
<path d="M3649 2620 c41 -38 47 -40 73 -29 31 13 36 27 13 35 -8 4 -12 10 -9
15 8 14 -30 11 -44 -3 -9 -9 -15 -10 -20 -2 -4 6 -18 15 -32 19 -21 6 -18 0
19 -35z m45 -1 c-4 -8 0 -9 15 -4 12 4 21 2 21 -4 0 -6 -11 -11 -25 -11 -24 0
-32 10 -18 23 10 11 15 8 7 -4z"/>
<path d="M2725 2630 c10 -11 20 -20 23 -20 3 0 -3 9 -13 20 -10 11 -20 20 -23
20 -3 0 3 -9 13 -20z"/>
<path d="M2827 2580 c10 -11 23 -20 31 -20 7 0 10 -5 6 -12 -4 -7 -3 -8 5 -4
14 9 5 26 -14 26 -7 0 -15 7 -19 15 -3 8 -10 15 -16 15 -5 0 -2 -9 7 -20z"/>
<path d="M4120 2570 c0 -5 4 -10 9 -10 6 0 13 5 16 10 3 6 -1 10 -9 10 -9 0
-16 -4 -16 -10z"/>
<path d="M1110 1990 l0 -200 38 1 c20 0 31 3 25 6 -8 3 -13 24 -13 53 0 38 -4
50 -17 53 -17 4 -17 5 0 6 15 1 17 12 17 80 0 67 -3 80 -17 84 -17 4 -17 5 0
6 13 1 17 10 18 44 0 23 3 36 6 30 2 -7 14 -13 26 -14 l22 0 -22 -9 c-26 -11
-24 -40 3 -51 15 -6 16 -8 3 -8 -27 -1 -31 -41 -6 -51 16 -6 17 -9 6 -9 -25
-1 -32 -41 -8 -41 10 0 19 -5 19 -10 0 -6 -7 -10 -16 -8 -25 5 -26 -32 -1 -41
l21 -8 -22 -5 c-29 -8 -28 -36 1 -48 16 -6 17 -9 5 -9 -24 -1 -32 -19 -17 -37
11 -14 45 -15 250 -12 131 1 240 5 242 8 3 3 7 91 8 195 l3 190 -287 3 -287 2
0 -200z m548 89 c12 0 11 -3 -5 -9 -14 -6 -32 -6 -45 0 l-23 9 24 0 c21 1 23
5 18 30 -3 16 -3 32 1 36 4 4 8 -9 10 -29 2 -26 8 -36 20 -37z m-269 -114 l2
-165 -76 0 c-48 0 -74 4 -70 10 3 6 31 10 61 10 69 0 71 19 2 22 l-53 1 55 6
c46 5 55 9 55 26 0 17 -9 21 -55 26 l-55 6 56 1 c55 2 57 3 61 32 3 21 1 27
-6 20 -12 -12 -50 -13 -86 -2 -20 6 -14 8 30 12 42 4 56 9 58 23 3 14 -5 17
-55 19 l-58 1 54 6 c48 5 56 9 61 31 7 25 6 25 -49 24 l-56 -1 53 4 c47 4 52
6 52 28 0 14 4 25 8 25 5 0 10 -74 11 -165z m175 47 c-1 -64 -3 -126 -4 -137
l-1 -20 -8 20 c-6 16 -20 21 -67 26 l-59 6 63 1 c55 2 62 4 62 22 0 18 -7 20
-54 20 -30 0 -58 5 -61 11 -4 6 -1 10 6 8 8 -1 35 -1 62 0 40 1 47 4 47 21 0
16 -8 20 -57 23 l-58 4 63 -1 c48 -1 61 2 57 12 -3 8 -5 20 -5 28 0 10 -16 14
-62 16 l-63 2 63 3 c58 4 62 5 62 28 0 14 3 25 8 25 4 0 6 -53 6 -118z m76
-32 c0 -56 3 -70 15 -70 8 0 15 -4 15 -10 0 -5 -7 -7 -15 -4 -12 5 -15 -3 -16
-37 -1 -24 -1 -47 0 -51 0 -5 -4 -8 -9 -8 -5 0 -10 9 -10 20 0 12 -7 20 -17
21 -17 1 -17 2 0 6 10 3 17 14 17 29 0 16 -6 24 -17 25 -17 1 -17 2 0 6 9 2
17 13 17 24 0 11 -7 19 -17 20 -17 1 -17 2 0 6 10 3 17 14 17 29 0 16 -6 24
-17 25 -14 0 -12 3 5 10 13 5 20 13 17 19 -3 5 -1 10 4 10 7 0 11 -27 11 -70z
m-75 -138 c-6 -7 -128 -2 -135 4 -2 3 28 4 68 3 40 -1 70 -4 67 -7z"/>
<path d="M2300 1985 c0 -188 5 -227 25 -195 4 6 11 8 16 5 5 -4 9 16 9 44 0
42 -3 51 -17 51 -17 1 -17 1 0 11 16 9 18 22 15 85 -2 51 -7 74 -15 74 -7 0
-13 5 -13 10 0 6 6 10 13 10 9 0 12 11 9 34 -2 18 1 37 7 40 6 4 11 0 11 -10
0 -12 6 -15 23 -12 l24 5 0 -169 c0 -93 3 -171 6 -174 10 -10 297 -4 317 6 13
7 20 6 23 -3 3 -6 6 65 6 159 1 94 4 186 7 203 l7 31 -237 0 -236 0 0 -205z
m431 95 c10 0 19 -4 19 -10 0 -5 -9 -10 -20 -10 -18 0 -20 -7 -20 -75 0 -68 2
-75 20 -75 11 0 20 -5 20 -10 0 -6 -8 -10 -17 -8 -15 2 -19 -7 -24 -47 -3 -27
-7 -40 -7 -27 -1 13 -9 22 -19 23 -17 1 -17 2 0 6 20 5 23 38 5 47 -10 5 -10
7 0 12 19 9 15 44 -5 45 -17 1 -17 2 0 6 10 3 17 14 17 29 0 16 -6 24 -17 25
-17 1 -17 2 0 6 21 5 23 43 2 43 -8 0 -15 5 -15 10 0 6 7 10 15 10 22 0 19 40
-2 41 -17 1 -17 2 0 6 9 2 18 12 19 21 1 9 3 -2 5 -25 3 -35 8 -43 24 -43z
m-106 50 c4 -6 -7 -10 -24 -10 -17 0 -31 5 -31 10 0 6 11 10 24 10 14 0 28 -4
31 -10z m-120 -12 c2 -7 5 -82 7 -165 l4 -153 -50 0 c-41 1 -47 3 -33 11 11 6
32 9 48 7 22 -4 26 -2 18 8 -6 7 -20 15 -32 17 -18 4 -17 5 6 6 20 1 27 6 27
21 0 15 -7 20 -27 21 l-28 1 28 10 c40 14 37 48 -5 49 -23 1 -26 3 -11 6 27 5
49 31 37 43 -5 4 -20 10 -34 13 -21 4 -20 4 8 6 25 1 32 5 32 21 0 15 -7 20
-26 20 -14 0 -23 4 -19 10 3 6 15 10 26 10 12 0 19 7 19 19 0 15 -8 21 -32 24
l-33 4 33 1 c18 1 34 -3 37 -10z m125 -48 c0 -5 -13 -10 -30 -10 -16 0 -30 5
-30 10 0 6 14 10 30 10 17 0 30 -4 30 -10z m0 -60 c0 -5 -13 -10 -30 -10 -16
0 -30 5 -30 10 0 6 14 10 30 10 17 0 30 -4 30 -10z m-2 -52 c-7 -19 -31 -21
-53 -4 -19 15 -18 15 18 16 27 0 37 -4 35 -12z m2 -58 c0 -5 -13 -10 -30 -10
-16 0 -30 5 -30 10 0 6 14 10 30 10 17 0 30 -4 30 -10z m0 -66 c0 -11 -6 -14
-22 -9 -39 12 -44 25 -10 25 22 0 32 -5 32 -16z"/>
<path d="M3424 2181 c-2 -2 -4 -92 -4 -200 l0 -196 302 3 c166 2 303 4 305 5
1 2 3 90 3 197 l2 195 -302 0 c-165 1 -303 -1 -306 -4z m81 -54 c18 -4 18 -5
-2 -6 -18 -1 -23 -7 -23 -27 0 -21 4 -24 20 -19 11 4 20 2 20 -4 0 -6 -9 -11
-20 -11 -13 0 -20 -7 -20 -20 0 -13 7 -20 20 -20 11 0 20 -4 20 -8 0 -5 -10
-8 -22 -8 -33 1 -31 -36 2 -45 24 -7 24 -7 3 -8 -30 -1 -33 -41 -3 -41 11 0
20 -4 20 -10 0 -5 -9 -10 -20 -10 -13 0 -20 -7 -20 -20 0 -13 7 -20 20 -20 11
0 20 -4 20 -9 0 -5 -8 -7 -19 -4 -13 3 -21 -2 -26 -19 -7 -19 -9 -16 -12 22
-3 24 -10 48 -16 52 -9 6 -9 8 1 8 10 0 13 22 11 88 -1 90 9 171 20 154 3 -5
15 -12 26 -15z m496 -54 c10 3 19 1 19 -4 0 -5 -9 -9 -19 -9 -16 0 -20 -9 -23
-52 -5 -85 0 -111 23 -105 10 3 19 1 19 -4 0 -5 -11 -9 -25 -9 -23 0 -25 -4
-26 -47 -1 -27 -4 -39 -6 -28 -3 11 -10 23 -17 27 -8 6 -7 8 2 8 6 0 12 9 12
20 0 11 -6 20 -12 21 -10 0 -10 2 0 6 6 2 12 16 12 29 0 13 -6 24 -12 25 -10
0 -10 2 0 6 6 2 12 16 12 29 0 13 -6 24 -12 25 -10 0 -10 2 0 6 6 2 12 13 12
24 0 10 -6 19 -12 19 -9 0 -9 3 -2 8 19 13 25 42 9 49 -13 5 -13 7 2 18 16 12
18 10 21 -27 3 -34 6 -39 23 -35z m-303 -100 c2 -100 -1 -153 -8 -153 -5 0
-10 5 -10 10 0 6 -26 11 -57 12 l-58 2 56 3 c46 3 58 8 62 23 5 18 -1 20 -56
21 l-62 2 63 10 c49 8 62 13 60 26 -2 12 -19 17 -68 20 l-65 5 65 5 c56 5 65
9 65 26 0 17 -8 20 -54 22 -75 4 -77 13 -3 13 55 0 62 2 62 20 0 18 -7 20 -62
20 -74 0 -73 8 3 14 45 3 55 7 57 24 3 19 -3 21 -60 25 l-63 4 65 -1 65 -1 3
-152z m160 150 c-15 -2 -42 -2 -60 0 -18 2 -6 4 27 4 33 0 48 -2 33 -4z m37
-53 c4 -6 -23 -9 -67 -9 -58 2 -65 3 -33 8 68 10 94 10 100 1z m-5 -59 c-8 -4
-42 -5 -75 -1 l-60 7 75 1 c43 1 69 -2 60 -7z m-22 -58 c-21 -2 -55 -2 -75 0
-21 2 -4 4 37 4 41 0 58 -2 38 -4z m32 -53 c0 -6 -28 -10 -72 -9 -48 1 -64 3
-48 8 42 12 120 13 120 1z m0 -60 c0 -12 -36 -12 -100 -1 -43 8 -41 9 28 10
42 0 72 -3 72 -9z"/>
<path d="M2360 2100 c0 -13 7 -20 20 -20 13 0 20 7 20 20 0 13 -7 20 -20 20
-13 0 -20 -7 -20 -20z"/>
<path d="M2360 2040 c0 -13 7 -20 20 -20 13 0 20 7 20 20 0 13 -7 20 -20 20
-13 0 -20 -7 -20 -20z"/>
<path d="M2360 1986 c0 -20 5 -26 21 -26 15 0 20 5 17 22 -5 34 -38 37 -38 4z"/>
<path d="M2360 1925 c0 -27 1 -28 24 -19 24 9 20 44 -4 44 -15 0 -20 -7 -20
-25z"/>
<path d="M2360 1870 c0 -13 7 -20 20 -20 13 0 20 7 20 20 0 13 -7 20 -20 20
-13 0 -20 -7 -20 -20z"/>
<path d="M2360 1815 c0 -8 9 -15 20 -15 11 0 20 7 20 15 0 8 -9 15 -20 15 -11
0 -20 -7 -20 -15z"/>
<path d="M953 1705 c4 -43 7 -100 7 -127 0 -36 4 -48 15 -48 8 0 15 4 15 9 0
5 6 9 13 8 6 0 20 1 30 1 17 2 17 3 3 18 -18 17 -22 59 -5 49 6 -4 8 -14 5
-22 -4 -10 -1 -13 13 -8 11 3 26 -1 35 -11 10 -9 20 -13 24 -9 4 4 2 10 -5 12
-23 8 -63 45 -63 58 0 11 41 45 55 45 3 0 5 -8 5 -17 0 -14 2 -15 9 -4 7 11
14 10 37 -5 22 -14 26 -15 17 -3 -12 15 -8 29 9 29 19 0 6 -36 -24 -68 -18
-18 -25 -30 -16 -27 10 4 24 -1 37 -14 27 -27 29 -26 23 5 -3 15 -8 21 -12 14
-5 -8 -11 -6 -20 5 -12 15 -4 20 23 16 4 0 7 12 7 28 0 16 3 36 6 45 10 27 24
7 24 -33 0 -31 4 -38 18 -37 9 0 17 -6 16 -14 -1 -9 8 -16 23 -16 l23 -2 -25
20 c-32 25 -32 41 0 62 32 21 41 20 76 -4 19 -14 26 -26 22 -38 -6 -14 -5 -15
9 -2 13 13 14 16 2 23 -16 9 -19 37 -4 37 6 0 10 -8 11 -17 0 -12 5 -9 13 10
15 35 26 25 26 -24 0 -28 4 -37 13 -33 7 2 22 -4 32 -16 10 -11 22 -20 27 -20
5 0 -4 11 -19 24 l-28 24 24 26 c30 32 48 33 86 2 30 -24 30 -24 11 -45 -11
-12 -16 -21 -12 -21 4 0 16 10 26 22 16 20 16 24 2 34 -8 6 -12 16 -8 23 6 9
11 9 22 0 11 -9 14 -7 14 10 0 12 5 19 10 16 6 -3 10 -38 10 -76 0 -39 4 -68
8 -65 5 3 7 19 4 36 -4 29 10 41 23 20 3 -5 20 -19 38 -30 28 -19 27 -17 -5
10 -21 18 -38 38 -38 45 0 14 42 45 61 45 23 0 70 -42 64 -58 -4 -12 -3 -13
10 -2 14 11 13 14 -1 25 -10 6 -14 17 -10 23 10 17 24 15 29 -5 3 -11 5 -7 6
10 1 17 7 27 16 27 8 0 15 9 15 19 0 11 6 22 13 24 6 3 -188 6 -433 6 -399 1
-448 3 -469 18 l-24 16 6 -78z m227 20 c0 -13 -13 -15 -77 -13 -50 2 -78 7
-81 16 -3 9 17 12 77 12 66 0 81 -3 81 -15z m460 1 c0 -11 -40 -14 -225 -14
-185 0 -225 3 -225 14 0 12 40 14 225 14 185 0 225 -2 225 -14z m210 -1 c0 -9
-27 -13 -100 -14 -85 -2 -100 1 -100 14 0 13 15 16 100 14 73 -1 100 -5 100
-14z m-775 -35 c-3 -5 -10 -10 -16 -10 -5 0 -9 5 -9 10 0 6 7 10 16 10 8 0 12
-4 9 -10z m90 -1 c-7 -11 -35 -12 -35 -1 0 4 9 8 20 9 11 1 18 -2 15 -8z m125
-3 c-6 -8 -18 -12 -26 -9 -23 9 -16 23 12 23 22 0 24 -2 14 -14z m80 -1 c-10
-12 -16 -13 -26 -4 -20 16 -18 19 12 19 22 0 25 -2 14 -15z m130 1 c-6 -8 -18
-12 -26 -9 -23 9 -16 23 12 23 22 0 24 -2 14 -14z m83 -3 c-7 -17 -18 -16 -33
2 -11 13 -9 15 13 13 16 -1 23 -7 20 -15z m127 2 c-10 -12 -16 -13 -26 -4 -20
16 -18 19 12 19 22 0 25 -2 14 -15z m87 -2 c-16 -16 -18 -16 -34 0 -16 16 -15
17 17 17 32 0 33 -1 17 -17z m-795 -116 c-10 -23 -16 9 -12 65 l4 63 6 -60 c3
-33 4 -63 2 -68z m33 104 c3 -5 1 -12 -5 -16 -5 -3 -10 1 -10 9 0 18 6 21 15
7z m219 0 c3 -5 -1 -14 -9 -21 -13 -10 -15 -9 -15 9 0 21 14 28 24 12z m210 0
c3 -5 -1 -14 -9 -21 -13 -10 -15 -9 -15 9 0 21 14 28 24 12z m210 0 c3 -5 -1
-14 -9 -21 -13 -10 -15 -9 -15 9 0 21 14 28 24 12z"/>
<path d="M2109 1743 c-2 -34 3 -209 7 -212 3 -3 9 1 15 9 8 13 10 13 19 0 6
-10 10 -11 10 -2 0 6 10 12 23 13 21 0 21 1 2 9 -18 7 -18 9 -3 15 9 3 27 1
40 -5 18 -10 15 -4 -12 24 l-35 37 24 20 c30 25 49 24 78 -3 l23 -22 -27 -30
c-16 -17 -21 -25 -12 -18 13 9 20 8 37 -8 30 -28 40 -25 13 4 l-23 24 21 21
c12 12 21 32 21 46 0 14 5 25 10 25 6 0 10 -33 10 -77 l0 -78 24 30 c18 23 22
34 14 48 -7 14 -5 24 8 38 22 25 45 24 78 -2 25 -19 26 -23 11 -38 -14 -17
-11 -31 7 -31 5 0 6 5 3 11 -4 6 1 17 11 24 18 13 18 14 0 28 -10 8 -16 19
-12 25 4 8 2 10 -7 6 -8 -3 -18 -1 -22 5 -3 7 2 11 15 11 12 0 24 -9 30 -22
l9 -23 7 23 c13 43 23 21 26 -55 3 -71 4 -76 16 -54 8 13 9 20 3 17 -7 -5 -11
3 -11 20 0 27 0 27 21 8 22 -19 22 -19 10 4 -10 18 -10 26 0 38 27 33 46 35
78 8 17 -14 29 -30 25 -35 -3 -5 -1 -9 5 -9 18 0 21 17 5 30 -8 7 -13 19 -10
26 3 8 0 11 -8 8 -8 -3 -17 -1 -21 5 -3 7 2 11 14 11 12 0 27 -11 35 -27 l15
-28 1 28 c0 15 5 27 10 27 6 0 10 -18 10 -41 0 -22 4 -38 9 -35 5 3 14 -1 22
-10 10 -13 9 -16 -9 -20 -11 -4 -23 -12 -26 -20 -8 -22 14 -16 35 9 11 13 22
18 26 12 5 -5 15 -16 24 -23 14 -10 18 -10 22 2 4 9 1 13 -6 10 -13 -4 -67 40
-67 56 0 5 12 18 26 29 19 15 31 18 43 11 35 -21 53 -39 46 -49 -4 -7 0 -8 10
-5 14 6 14 8 -1 25 -9 10 -13 22 -9 28 3 6 0 8 -8 5 -8 -3 -18 -1 -22 5 -10
17 32 13 49 -5 15 -14 16 -13 16 6 0 16 4 20 15 16 8 -3 15 -1 15 4 0 6 -6 10
-12 10 -7 0 -65 1 -128 1 -63 0 -146 0 -185 0 -122 1 -150 1 -160 -1 -28 -6
-115 1 -115 10 0 6 90 10 251 10 148 0 248 4 245 9 -7 11 -746 15 -747 4z
m241 -21 c0 -5 -43 -10 -95 -11 -61 -1 -95 2 -95 8 0 7 35 11 95 11 52 0 95
-4 95 -8z m-200 -97 c0 -37 -4 -65 -10 -65 -6 0 -10 28 -10 65 0 37 4 65 10
65 6 0 10 -28 10 -65z m62 53 c-9 -9 -15 -9 -24 0 -9 9 -7 12 12 12 19 0 21
-3 12 -12z m80 0 c-9 -9 -15 -9 -24 0 -9 9 -7 12 12 12 19 0 21 -3 12 -12z
m120 0 c-9 -9 -15 -9 -24 0 -9 9 -7 12 12 12 19 0 21 -3 12 -12z m200 0 c-9
-9 -15 -9 -24 0 -9 9 -7 12 12 12 19 0 21 -3 12 -12z m200 0 c-9 -9 -15 -9
-24 0 -9 9 -7 12 12 12 19 0 21 -3 12 -12z m-428 -29 c-10 -16 -24 -9 -24 12
0 18 2 19 15 9 8 -7 12 -16 9 -21z m-204 6 c0 -8 -4 -15 -10 -15 -5 0 -10 7
-10 15 0 8 5 15 10 15 6 0 10 -7 10 -15z m134 -1 c4 -10 1 -14 -6 -12 -15 5
-23 28 -10 28 5 0 13 -7 16 -16z m268 1 c0 -5 -5 -11 -11 -13 -6 -2 -11 4 -11
13 0 9 5 15 11 13 6 -2 11 -8 11 -13z m200 0 c0 -5 -5 -11 -11 -13 -6 -2 -11
4 -11 13 0 9 5 15 11 13 6 -2 11 -8 11 -13z m-600 -60 c0 -5 -5 -11 -11 -13
-6 -2 -11 4 -11 13 0 9 5 15 11 13 6 -2 11 -8 11 -13z m202 6 c3 -5 -1 -14 -9
-21 -13 -10 -15 -9 -15 9 0 21 14 28 24 12z"/>
<path d="M3200 1640 c0 -98 9 -134 23 -97 4 10 6 10 6 0 1 -7 8 -13 17 -13 8
0 12 5 9 10 -4 6 9 11 32 11 34 2 35 2 8 6 -16 3 -34 8 -39 13 -12 12 1 43 14
35 8 -5 7 -11 -1 -21 -9 -12 -7 -13 18 -8 19 4 35 1 44 -9 13 -13 18 -12 38 4
18 15 26 16 42 6 10 -6 19 -15 19 -19 0 -5 8 -8 18 -8 13 0 11 5 -11 23 l-28
22 25 23 c16 13 26 32 26 49 0 22 2 25 10 13 6 -8 9 -42 8 -75 -1 -35 2 -58 8
-55 5 3 8 18 6 34 -3 23 -1 28 13 22 9 -3 19 -6 23 -6 3 0 -3 -7 -14 -15 -10
-8 -14 -15 -7 -15 6 0 15 5 18 10 4 7 14 6 28 -1 13 -6 9 1 -12 19 l-33 28 31
26 c34 29 53 28 95 -6 26 -20 27 -23 12 -38 -20 -20 -20 -28 -1 -28 7 0 18 -8
24 -17 5 -10 13 -14 17 -10 4 4 -2 15 -15 23 -22 16 -22 16 -3 38 11 11 24 35
30 51 7 20 11 24 12 13 2 -10 4 -22 5 -28 1 -5 3 -19 4 -30 1 -12 6 -17 15
-14 19 7 32 -16 15 -27 -9 -6 -10 -9 -2 -9 6 0 15 5 18 10 4 6 18 2 36 -10 16
-12 29 -18 29 -13 0 4 -19 21 -41 37 -26 18 -38 33 -35 43 4 11 2 13 -9 9 -8
-3 -15 0 -15 5 0 7 9 9 21 6 12 -3 31 0 43 8 18 12 26 12 54 -2 42 -20 50 -38
27 -63 -16 -17 -15 -19 7 -22 13 -2 22 -9 20 -16 -1 -6 5 -12 13 -12 21 0 19
13 -6 28 -16 11 -18 16 -9 27 7 8 16 12 21 9 5 -3 9 5 9 18 0 13 4 29 9 37 11
18 25 -79 16 -110 -5 -16 -3 -20 6 -17 9 3 13 17 11 36 -2 18 1 32 6 32 16 0
22 -13 11 -27 -13 -15 2 -18 17 -3 7 7 18 3 33 -11 12 -12 25 -18 28 -15 4 3
4 7 2 9 -61 42 -80 61 -75 74 4 11 2 13 -9 9 -9 -3 -15 0 -15 10 0 12 4 13 21
4 16 -9 25 -8 42 3 20 13 26 13 59 -4 45 -23 52 -33 33 -49 -19 -16 -19 -30 0
-30 7 0 18 -7 23 -16 5 -9 15 -15 23 -12 8 3 1 11 -19 23 l-32 19 24 21 c14
12 26 35 29 58 l6 37 -105 0 c-66 0 -104 4 -104 11 0 6 35 10 98 9 142 -2 166
-1 159 7 -13 12 -827 16 -827 4 0 -8 51 -11 160 -11 99 0 160 -4 160 -10 0 -6
-84 -9 -232 -7 -150 1 -231 6 -228 12 3 5 11 9 18 7 6 -2 12 2 12 8 0 5 -20
10 -45 10 l-45 0 0 -110z m760 80 c0 -6 -45 -10 -115 -10 -70 0 -115 4 -115
10 0 6 45 10 115 10 70 0 115 -4 115 -10z m-660 -40 c0 -5 -2 -10 -4 -10 -3 0
-8 5 -11 10 -3 6 -1 10 4 10 6 0 11 -4 11 -10z m114 -2 c-5 -8 -2 -9 9 -5 12
5 17 1 17 -14 0 -19 -1 -19 -30 3 -36 26 -36 28 -9 28 13 0 18 -4 13 -12z
m139 1 c-8 -8 -16 -8 -30 0 -16 9 -14 10 12 11 21 0 26 -3 18 -11z m102 1 c-3
-5 -12 -10 -20 -10 -8 0 -17 5 -20 10 -4 6 5 10 20 10 15 0 24 -4 20 -10z
m137 -2 c-9 -9 -15 -9 -24 0 -9 9 -7 12 12 12 19 0 21 -3 12 -12z m103 2 c-3
-5 -12 -10 -20 -10 -8 0 -17 5 -20 10 -4 6 5 10 20 10 15 0 24 -4 20 -10z
m135 0 c0 -13 -11 -13 -30 0 -12 8 -11 10 8 10 12 0 22 -4 22 -10z m105 0 c-3
-5 -12 -10 -20 -10 -8 0 -17 5 -20 10 -4 6 5 10 20 10 15 0 24 -4 20 -10z
m-901 -62 c5 -39 4 -58 -3 -58 -7 0 -11 24 -11 62 0 74 5 73 14 -4z m146 42
c22 -11 40 -27 40 -34 0 -8 -16 -24 -36 -35 l-37 -22 -39 28 -40 27 34 28 c18
15 34 28 36 28 1 0 21 -9 42 -20z m776 -18 c-4 -3 -12 0 -19 7 -9 9 -9 14 3
21 11 7 16 5 18 -6 2 -9 1 -18 -2 -22z m-881 19 c3 -5 1 -12 -5 -16 -5 -3 -10
1 -10 9 0 18 6 21 15 7z m237 -6 c0 -5 -5 -11 -11 -13 -6 -2 -11 4 -11 13 0 9
5 15 11 13 6 -2 11 -8 11 -13z m168 -1 c0 -17 -22 -14 -28 4 -2 7 3 12 12 12
9 0 16 -7 16 -16z m238 -3 c3 -8 -1 -12 -9 -9 -7 2 -15 10 -17 17 -3 8 1 12 9
9 7 -2 15 -10 17 -17z"/>
<path d="M3310 1740 c0 -5 9 -10 19 -10 11 0 23 5 26 10 4 6 -5 10 -19 10 -14
0 -26 -4 -26 -10z"/>
<path d="M4390 1740 l-45 -7 48 -1 c26 -1 47 3 47 8 0 6 -1 9 -2 8 -2 0 -23
-4 -48 -8z"/>
<path d="M2893 1733 c15 -2 39 -2 55 0 15 2 2 4 -28 4 -30 0 -43 -2 -27 -4z"/>
<path d="M3148 1733 c7 -3 16 -2 19 1 4 3 -2 6 -13 5 -11 0 -14 -3 -6 -6z"/>
<path d="M1341 1596 c-10 -12 -8 -13 8 -9 12 3 18 9 15 14 -7 12 -10 11 -23
-5z"/>
<path d="M1428 1577 c-3 -15 -2 -27 3 -27 13 0 17 14 9 35 -6 17 -7 16 -12 -8z"/>
<path d="M2670 1590 c0 -5 5 -10 10 -10 6 0 10 5 10 10 0 6 -4 10 -10 10 -5 0
-10 -4 -10 -10z"/>
<path d="M2870 1591 c0 -6 5 -13 10 -16 6 -3 10 1 10 9 0 9 -4 16 -10 16 -5 0
-10 -4 -10 -9z"/>
<path d="M2410 1582 c0 -4 10 -13 23 -21 22 -14 22 -14 3 8 -20 22 -26 25 -26
13z"/>
<path d="M2610 1582 c0 -4 10 -13 23 -21 22 -14 22 -14 3 8 -20 22 -26 25 -26
13z"/>
<path d="M3717 1569 c-6 -22 2 -29 23 -20 14 5 14 8 -1 23 -16 15 -17 15 -22
-3z"/>
<path d="M1216 1564 c-4 -10 -1 -14 6 -12 15 5 23 28 10 28 -5 0 -13 -7 -16
-16z"/>
<path d="M1390 1571 c0 -6 4 -13 10 -16 6 -3 7 1 4 9 -7 18 -14 21 -14 7z"/>
<path d="M1590 1576 c0 -2 7 -9 15 -16 13 -11 14 -10 9 4 -5 14 -24 23 -24 12z"/>
<path d="M2710 1565 c0 -8 4 -15 10 -15 5 0 7 7 4 15 -4 8 -8 15 -10 15 -2 0
-4 -7 -4 -15z"/>
<path d="M2510 1560 c0 -5 5 -10 11 -10 5 0 7 5 4 10 -3 6 -8 10 -11 10 -2 0
-4 -4 -4 -10z"/>
<path d="M2910 1560 c0 -5 5 -10 11 -10 5 0 7 5 4 10 -3 6 -8 10 -11 10 -2 0
-4 -4 -4 -10z"/>
<path d="M1020 1206 c0 -39 2 -44 20 -39 11 3 20 0 20 -6 0 -6 -9 -11 -20 -11
-16 0 -20 -7 -20 -35 l0 -35 178 -2 c97 -1 186 -1 197 -1 11 1 67 2 125 3 58
2 110 7 117 12 7 5 14 5 18 -2 3 -5 35 -10 71 -10 l64 0 0 83 0 82 -385 3
-385 2 0 -44z m647 18 c-3 -3 -12 -4 -19 -1 -8 3 -5 6 6 6 11 1 17 -2 13 -5z
m-277 -28 c0 -3 -4 -8 -10 -11 -5 -3 -10 -1 -10 4 0 6 5 11 10 11 6 0 10 -2
10 -4z m160 -8 c0 -5 -11 -7 -25 -5 -37 5 -41 16 -6 15 17 -1 31 -5 31 -10z
m-420 -28 c0 -5 -5 -10 -11 -10 -5 0 -7 5 -4 10 3 6 8 10 11 10 2 0 4 -4 4
-10z m100 -6 c0 -2 -9 -4 -20 -4 -11 0 -20 4 -20 9 0 5 9 7 20 4 11 -3 20 -7
20 -9z m340 4 c0 -4 -42 -8 -92 -7 -54 1 -82 4 -68 8 34 9 160 9 160 -1z m65
2 c3 -5 -3 -10 -14 -10 -12 0 -21 5 -21 10 0 6 6 10 14 10 8 0 18 -4 21 -10z
m108 -2 c-6 -11 -43 -10 -43 1 0 5 11 8 24 7 13 0 22 -4 19 -8z m-646 -4 c-3
-3 -12 -4 -19 -1 -8 3 -5 6 6 6 11 1 17 -2 13 -5z m236 -1 c-7 -2 -19 -2 -25
0 -7 3 -2 5 12 5 14 0 19 -2 13 -5z m-23 -29 c0 -2 -9 -4 -21 -4 -11 0 -18 4
-14 10 5 8 35 3 35 -6z m99 7 c19 -12 -41 -25 -71 -15 l-23 8 25 7 c35 10 53
10 69 0z m166 -11 c-34 -7 -40 -5 -31 8 3 5 18 7 33 4 l28 -6 -30 -6z m-325 0
c0 -12 -8 -12 -35 0 -18 8 -17 9 8 9 15 1 27 -3 27 -9z m250 2 c0 -10 -57 -9
-67 1 -3 4 10 7 30 7 21 0 37 -4 37 -8z m-157 -29 c-7 -2 -21 -2 -30 0 -10 3
-4 5 12 5 17 0 24 -2 18 -5z"/>
<path d="M2215 1178 c5 -40 8 -79 8 -85 0 -10 51 -13 216 -14 119 0 263 -3
320 -5 58 -3 110 -3 116 0 9 3 9 22 0 78 -6 41 -14 79 -18 84 -4 7 -121 11
-328 12 l-321 2 7 -72z m280 -18 c3 -5 -1 -10 -10 -10 -9 0 -13 5 -10 10 3 6
8 10 10 10 2 0 7 -4 10 -10z m192 -6 c-3 -3 -12 -4 -19 -1 -8 3 -5 6 6 6 11 1
17 -2 13 -5z"/>
<path d="M3387 1242 c-37 -1 -65 -7 -62 -12 3 -5 14 -42 24 -82 l19 -73 238
-5 c341 -7 564 -2 564 13 0 7 -10 45 -21 85 l-22 72 -323 0 c-177 0 -328 1
-336 3 -7 2 -44 1 -81 -1z"/>
<path d="M1110 886 c0 -78 3 -170 6 -202 l6 -59 284 3 284 3 0 102 c0 56 3
146 7 200 l6 97 -296 0 -297 0 0 -144z m543 27 c-4 -9 -8 -9 -18 0 -9 9 -9 16
-1 29 10 17 11 17 17 0 3 -9 4 -22 2 -29z m-473 17 c0 -5 -4 -10 -10 -10 -5 0
-10 5 -10 10 0 6 5 10 10 10 6 0 10 -4 10 -10z m370 0 c0 -6 -23 -9 -52 -8
l-53 1 50 7 c28 4 51 8 53 8 1 1 2 -2 2 -8z m-377 -67 c-3 -15 -1 -23 8 -23
10 0 10 -3 1 -12 -18 -18 -15 -38 6 -38 16 -1 16 -1 0 -11 -10 -5 -18 -17 -18
-24 0 -8 8 -15 18 -15 16 -1 16 -1 0 -11 -25 -14 -22 -39 5 -40 14 0 17 -2 7
-6 -8 -3 -21 -12 -27 -21 -11 -13 -13 -9 -13 26 0 27 -5 42 -12 42 -10 0 -10
2 -1 8 7 5 13 39 14 90 2 45 6 76 10 70 5 -7 6 -23 2 -35z m150 20 c-7 -2 -19
-2 -25 0 -7 3 -2 5 12 5 14 0 19 -2 13 -5z m317 -3 c0 -5 -5 -10 -11 -10 -5 0
-7 5 -4 10 3 6 8 10 11 10 2 0 4 -4 4 -10z m-112 -7 c-16 -2 -40 -2 -55 0 -16
2 -3 4 27 4 30 0 43 -2 28 -4z m-180 -40 c-16 -2 -40 -2 -55 0 -16 2 -3 4 27
4 30 0 43 -2 28 -4z m207 -3 c4 -6 -10 -9 -37 -9 l-43 2 35 7 c19 4 36 8 37 9
1 0 5 -3 8 -9z m87 -45 c-1 -33 3 -45 13 -45 8 0 15 -4 15 -10 0 -5 -6 -10
-13 -10 -9 0 -13 -11 -12 -30 1 -17 -2 -33 -7 -36 -4 -3 -8 2 -8 10 0 9 -6 16
-12 17 -10 0 -10 2 0 6 8 3 12 29 12 81 0 41 3 73 6 69 4 -3 6 -27 6 -52z
m-264 -62 c2 -35 7 -63 12 -63 6 0 10 -4 10 -10 0 -5 -25 -10 -55 -10 -30 0
-55 5 -55 10 0 6 18 10 40 10 63 0 47 20 -17 22 l-58 2 58 3 c48 3 58 7 55 21
-2 13 -17 19 -58 23 l-55 6 58 1 c50 2 58 5 55 20 -2 13 -17 19 -58 23 l-55 6
60 -1 60 -1 3 -62z m157 57 c17 -7 15 -9 -10 -8 -16 0 -43 4 -60 8 -29 7 -28
8 10 8 22 0 49 -3 60 -8z m15 -50 c0 -11 -40 -11 -85 0 -25 6 -20 8 28 9 32 0
57 -3 57 -9z m-22 -47 c-15 -2 -42 -2 -60 0 -18 2 -6 4 27 4 33 0 48 -2 33 -4z"/>
<path d="M2300 830 l0 -200 186 0 c140 0 189 3 199 13 8 9 13 42 13 103 0 170
2 207 8 201 4 -3 6 -51 5 -106 -2 -88 0 -100 16 -104 17 -4 17 -5 1 -6 -14 -1
-18 -10 -18 -45 0 -36 4 -46 21 -51 11 -4 22 -5 24 -3 1 1 5 92 7 201 l4 197
-233 0 -233 0 0 -200z m168 103 c-10 -2 -26 -2 -35 0 -10 3 -2 5 17 5 19 0 27
-2 18 -5z m145 0 c-7 -2 -21 -2 -30 0 -10 3 -4 5 12 5 17 0 24 -2 18 -5z
m-269 -58 c-4 -8 -8 -15 -10 -15 -2 0 -4 7 -4 15 0 8 4 15 10 15 5 0 7 -7 4
-15z m134 8 c-10 -2 -28 -2 -40 0 -13 2 -5 4 17 4 22 1 32 -1 23 -4z m140 0
c-10 -2 -28 -2 -40 0 -13 2 -5 4 17 4 22 1 32 -1 23 -4z m-118 -114 c3 -47 8
-65 11 -49 4 17 7 7 8 -27 1 -50 0 -53 -24 -53 -27 0 -33 14 -12 27 7 5 -5 10
-33 14 l-45 6 43 1 c35 2 42 5 42 22 0 17 -7 20 -42 22 l-43 1 43 4 c41 4 51
23 11 23 -10 0 -19 4 -19 9 0 5 -8 11 -17 14 -10 2 1 8 25 12 25 4 42 13 42
21 0 10 -13 14 -42 14 -42 0 -42 1 -18 13 48 26 64 8 70 -74z m-157 25 c-2
-30 2 -51 10 -56 9 -6 9 -8 0 -8 -15 0 -18 -37 -4 -42 5 -1 3 -9 -5 -16 -12
-11 -14 -7 -14 23 0 21 -5 35 -12 36 -10 0 -10 2 0 6 7 3 12 25 12 59 0 31 4
53 8 50 4 -2 6 -26 5 -52z m280 39 c-13 -2 -33 -2 -45 0 -13 2 -3 4 22 4 25 0
35 -2 23 -4z m0 -50 c-13 -2 -33 -2 -45 0 -13 2 -3 4 22 4 25 0 35 -2 23 -4z
m0 -50 c-13 -2 -33 -2 -45 0 -13 2 -3 4 22 4 25 0 35 -2 23 -4z m-25 -63 l47
4 -45 7 -45 7 55 -2 c49 -1 55 -3 58 -23 3 -22 0 -23 -65 -23 l-69 0 5 43 c5
36 6 38 9 12 3 -29 4 -30 50 -25z"/>
<path d="M3443 1022 c-23 -3 -23 -3 -23 -208 0 -124 4 -203 9 -199 5 3 140 5
300 5 l291 0 0 123 c1 67 5 156 10 197 4 41 6 77 3 80 -5 6 -555 7 -590 2z
m19 -93 c0 -24 5 -47 12 -51 8 -6 7 -8 -1 -8 -20 0 -15 -40 5 -41 16 -1 16 -2
0 -6 -10 -2 -18 -13 -18 -24 0 -11 7 -19 18 -20 16 -1 16 -2 0 -6 -10 -2 -18
-13 -18 -24 0 -11 7 -19 18 -20 16 -1 16 -2 0 -6 -27 -7 -23 -43 5 -44 l22 -2
-22 -4 c-12 -2 -24 -12 -26 -21 -3 -9 -5 2 -6 26 -1 26 -6 42 -13 43 -10 0
-10 2 0 6 9 3 12 39 12 131 0 69 3 123 6 120 3 -3 5 -25 6 -49z m522 -1 c8 -5
7 -8 -1 -8 -10 0 -13 -26 -13 -95 0 -83 2 -95 18 -96 16 -1 16 -2 0 -6 -13 -3
-18 -15 -19 -46 -1 -23 -3 -34 -6 -24 -2 9 -12 18 -21 18 -15 1 -15 2 1 6 9 2
17 13 17 24 0 11 -7 19 -17 20 -17 1 -17 2 0 6 9 2 17 13 17 24 0 11 -7 19
-17 20 -17 1 -17 2 0 6 9 2 17 13 17 24 0 11 -7 19 -17 20 -17 1 -17 2 0 6 19
5 24 43 5 43 -10 0 -10 2 0 9 8 4 13 17 12 27 -1 11 -1 28 0 39 1 15 3 16 7 5
3 -8 11 -18 17 -22z m-346 -5 c-16 -2 -40 -2 -55 0 -16 2 -3 4 27 4 30 0 43
-2 28 -4z m200 0 c-10 -2 -28 -2 -40 0 -13 2 -5 4 17 4 22 1 32 -1 23 -4z
m-191 -50 c-20 -2 -52 -2 -70 0 -17 2 0 4 38 4 39 0 53 -2 32 -4z m191 0 c-16
-2 -40 -2 -55 0 -16 2 -3 4 27 4 30 0 43 -2 28 -4z m-191 -50 c-20 -2 -52 -2
-70 0 -17 2 0 4 38 4 39 0 53 -2 32 -4z m201 0 c-15 -2 -42 -2 -60 0 -18 2 -6
4 27 4 33 0 48 -2 33 -4z m-201 -50 c-20 -2 -52 -2 -70 0 -17 2 0 4 38 4 39 0
53 -2 32 -4z m200 0 c-20 -2 -52 -2 -70 0 -17 2 0 4 38 4 39 0 53 -2 32 -4z
m-162 -121 c-3 -4 -9 -1 -13 5 -4 7 -34 14 -67 16 l-60 3 63 2 c55 2 62 4 62
22 0 18 -7 20 -62 22 l-63 2 63 3 c48 3 65 8 70 21 4 10 8 -4 10 -37 2 -29 0
-56 -3 -59z m162 71 c-20 -2 -52 -2 -70 0 -17 2 0 4 38 4 39 0 53 -2 32 -4z
m-4 -50 c-18 -2 -48 -2 -65 0 -18 2 -4 4 32 4 36 0 50 -2 33 -4z"/>
</g>
</svg>
