<svg width="27" height="29" viewBox="0 0 27 29" fill="none" xmlns="http://www.w3.org/2000/svg">
<path fill-rule="evenodd" clip-rule="evenodd" d="M0.673502 10.8777C0.151123 12.0409 0.151123 13.357 0.151123 15.9891V16.5955C0.151123 22.2074 0.151123 25.0134 1.89453 26.7568C3.63794 28.5002 6.44391 28.5002 12.0558 28.5002H15.032C20.644 28.5002 23.4499 28.5002 25.1934 26.7568C26.9368 25.0134 26.9368 22.2074 26.9368 16.5955V15.9891C26.9368 13.357 26.9368 12.0409 26.4144 10.8777C25.892 9.71442 24.9084 8.84008 22.9411 7.0914L21.453 5.76865C17.689 2.42288 15.807 0.75 13.5439 0.75C11.2809 0.75 9.39886 2.42288 5.63487 5.76865L4.14678 7.0914C2.17951 8.84008 1.19588 9.71442 0.673502 10.8777ZM6.00996 13.3374C5.69779 14.0475 5.69779 14.8471 5.69779 16.4463V16.6156C5.69779 20.0967 5.69779 21.8373 6.77925 22.9188C7.86071 24.0002 9.60129 24.0002 13.0824 24.0002H14.0055C17.4867 24.0002 19.2273 24.0002 20.3087 22.9188C21.3902 21.8373 21.3902 20.0967 21.3902 16.6156V16.4463C21.3902 14.8471 21.3902 14.0475 21.078 13.3374C20.7659 12.6273 20.1767 12.0866 18.9984 11.0054L18.5369 10.5818C16.1666 8.4067 14.9814 7.31914 13.544 7.31914C12.1066 7.31914 10.9214 8.4067 8.5511 10.5818L8.08956 11.0054C6.91127 12.0866 6.32212 12.6273 6.00996 13.3374Z" fill="#191A23"/>
<mask id="mask0_3430_1719" style="mask-type:alpha" maskUnits="userSpaceOnUse" x="0" y="0" width="27" height="29">
<path fill-rule="evenodd" clip-rule="evenodd" d="M0.673502 10.8777C0.151123 12.0409 0.151123 13.357 0.151123 15.9891V16.5955C0.151123 22.2074 0.151123 25.0134 1.89453 26.7568C3.63794 28.5002 6.44391 28.5002 12.0558 28.5002H15.032C20.644 28.5002 23.4499 28.5002 25.1934 26.7568C26.9368 25.0134 26.9368 22.2074 26.9368 16.5955V15.9891C26.9368 13.357 26.9368 12.0409 26.4144 10.8777C25.892 9.71442 24.9084 8.84008 22.9411 7.0914L21.453 5.76865C17.689 2.42288 15.807 0.75 13.5439 0.75C11.2809 0.75 9.39886 2.42288 5.63487 5.76865L4.14678 7.0914C2.17951 8.84008 1.19588 9.71442 0.673502 10.8777ZM6.00996 13.3374C5.69779 14.0475 5.69779 14.8471 5.69779 16.4463V16.6156C5.69779 20.0967 5.69779 21.8373 6.77925 22.9188C7.86071 24.0002 9.60129 24.0002 13.0824 24.0002H14.0055C17.4867 24.0002 19.2273 24.0002 20.3087 22.9188C21.3902 21.8373 21.3902 20.0967 21.3902 16.6156V16.4463C21.3902 14.8471 21.3902 14.0475 21.078 13.3374C20.7659 12.6273 20.1767 12.0866 18.9984 11.0054L18.5369 10.5818C16.1666 8.4067 14.9814 7.31914 13.544 7.31914C12.1066 7.31914 10.9214 8.4067 8.5511 10.5818L8.08956 11.0054C6.91127 12.0866 6.32212 12.6273 6.00996 13.3374Z" fill="#B592FF"/>
</mask>
<g mask="url(#mask0_3430_1719)">
<circle cx="20.7765" cy="7.87508" r="12.3751" fill="#B592FF"/>
<path d="M9.57528 15.6035C10.9587 15.6035 11.6505 15.6035 12.2213 15.7406C14.0351 16.176 15.4512 17.5921 15.8866 19.4059C16.0237 19.9767 16.0237 20.6685 16.0237 22.0519C16.0237 23.4354 16.0237 24.1271 15.8866 24.698C15.4512 26.5117 14.0351 27.9278 12.2213 28.3632C11.6505 28.5003 10.9587 28.5003 9.57529 28.5003L8.0872 28.5003C5.30917 28.5003 3.92015 28.5003 2.85909 27.9597C1.92574 27.4841 1.16691 26.7253 0.691353 25.7919C0.150713 24.7309 0.150713 23.3418 0.150713 20.5638L0.150713 15.6035L9.57528 15.6035Z" fill="#FDA5D6"/>
</g>
</svg>
