<svg width="12" height="13" viewBox="0 0 12 13" fill="none" xmlns="http://www.w3.org/2000/svg">
<path d="M4.00272 6.03075C4.00272 4.92524 4.89841 4.02882 6.0036 4.02882C7.10879 4.02882 8.00496 4.92524 8.00496 6.03075C8.00496 7.13626 7.10879 8.03269 6.0036 8.03269C4.89841 8.03269 4.00272 7.13626 4.00272 6.03075ZM2.92082 6.03075C2.92082 7.73387 4.30098 9.11442 6.0036 9.11442C7.70622 9.11442 9.08638 7.73387 9.08638 6.03075C9.08638 4.32764 7.70622 2.94709 6.0036 2.94709C4.30098 2.94709 2.92082 4.32764 2.92082 6.03075ZM8.48799 2.82482C8.48793 2.96735 8.53013 3.10669 8.60924 3.22523C8.68836 3.34377 8.80083 3.43619 8.93245 3.49078C9.06407 3.54538 9.20892 3.55971 9.34869 3.53196C9.48845 3.50421 9.61684 3.43562 9.71764 3.33488C9.81843 3.23414 9.8871 3.10576 9.91495 2.96598C9.9428 2.8262 9.9286 2.6813 9.87412 2.5496C9.81964 2.4179 9.72735 2.30531 9.60891 2.22608C9.49047 2.14685 9.35119 2.10452 9.20871 2.10447H9.20842C9.01743 2.10456 8.83428 2.18047 8.6992 2.31553C8.56412 2.4506 8.48815 2.63377 8.48799 2.82482ZM3.57815 10.919C2.99282 10.8923 2.67468 10.7948 2.46325 10.7124C2.18296 10.6032 1.98297 10.4732 1.7727 10.2632C1.56243 10.0531 1.43227 9.85327 1.32363 9.57289C1.24121 9.3615 1.14371 9.04317 1.1171 8.45768C1.088 7.82467 1.08219 7.63451 1.08219 6.0308C1.08219 4.42709 1.08848 4.23747 1.1171 3.60393C1.14376 3.01843 1.24198 2.70073 1.32363 2.48871C1.43275 2.20834 1.56271 2.00829 1.7727 1.79796C1.98268 1.58762 2.18248 1.45743 2.46325 1.34876C2.67458 1.26632 2.99282 1.16879 3.57815 1.14217C4.21097 1.11306 4.40107 1.10725 6.0036 1.10725C7.60613 1.10725 7.79642 1.11354 8.42978 1.14217C9.0151 1.16884 9.33272 1.26708 9.54467 1.34876C9.82496 1.45743 10.025 1.58791 10.2352 1.79796C10.4455 2.008 10.5752 2.20834 10.6843 2.48871C10.7667 2.7001 10.8642 3.01843 10.8908 3.60393C10.9199 4.23747 10.9257 4.42709 10.9257 6.0308C10.9257 7.63451 10.9199 7.82414 10.8908 8.45768C10.8642 9.04317 10.7662 9.36141 10.6843 9.57289C10.5752 9.85327 10.4452 10.0533 10.2352 10.2632C10.0252 10.473 9.82496 10.6032 9.54467 10.7124C9.33334 10.7948 9.0151 10.8923 8.42978 10.919C7.79695 10.9481 7.60685 10.9539 6.0036 10.9539C4.40035 10.9539 4.21078 10.9481 3.57815 10.919ZM3.52844 0.0617894C2.88932 0.0909033 2.45259 0.192273 2.07119 0.340725C1.67621 0.494029 1.34183 0.6997 1.00769 1.0334C0.673556 1.36711 0.468473 1.70211 0.315213 2.09721C0.166804 2.47896 0.0654633 2.91557 0.0363578 3.55488C0.00677206 4.19519 0 4.3999 0 6.03075C0 7.66161 0.00677206 7.86632 0.0363578 8.50663C0.0654633 9.14598 0.166804 9.58255 0.315213 9.9643C0.468473 10.3592 0.673604 10.6945 1.00769 11.0281C1.34178 11.3617 1.67621 11.567 2.07119 11.7208C2.45331 11.8692 2.88932 11.9706 3.52844 11.9997C4.1689 12.0288 4.37321 12.0361 6.0036 12.0361C7.63399 12.0361 7.83864 12.0293 8.47876 11.9997C9.11793 11.9706 9.55437 11.8692 9.93601 11.7208C10.3308 11.567 10.6654 11.3618 10.9995 11.0281C11.3336 10.6944 11.5383 10.3592 11.692 9.9643C11.8404 9.58255 11.9422 9.14594 11.9708 8.50663C11.9999 7.86584 12.0067 7.66161 12.0067 6.03075C12.0067 4.3999 11.9999 4.19519 11.9708 3.55488C11.9417 2.91552 11.8404 2.47872 11.692 2.09721C11.5383 1.70235 11.3331 1.36764 10.9995 1.0334C10.6659 0.699171 10.3308 0.494029 9.93649 0.340725C9.55437 0.192273 9.11788 0.0904229 8.47925 0.0617894C7.83912 0.0326756 7.63447 0.0254211 6.00408 0.0254211C4.37369 0.0254211 4.1689 0.0321952 3.52844 0.0617894Z" fill="white"/>
</svg>
