<svg width="20" height="20" viewBox="0 0 20 20" fill="none" xmlns="http://www.w3.org/2000/svg">
<path d="M19.1597 8.13997C18.7797 7.59997 18.1397 7.3 17.3797 7.3H13.4797C13.2197 7.3 12.9797 7.19995 12.8197 6.99995C12.6597 6.79995 12.5797 6.53996 12.6197 6.25996L13.0997 3.13997C13.2997 2.21997 12.6797 1.15994 11.7597 0.859939C10.8997 0.539939 9.87967 0.97991 9.47967 1.57991L5.59967 7.33992V6.61995C5.59967 5.21995 4.99971 4.63997 3.51971 4.63997H2.53967C1.05967 4.63997 0.459717 5.21995 0.459717 6.61995V16.18C0.459717 17.58 1.05967 18.16 2.53967 18.16H3.51971C4.91971 18.16 5.51971 17.6199 5.57971 16.3399L8.51971 18.5999C8.91971 18.9999 9.81972 19.2199 10.4597 19.2199H14.1597C15.4397 19.2199 16.7197 18.2599 16.9997 17.0799L19.3397 9.95992C19.5997 9.31991 19.5397 8.65997 19.1597 8.13997Z" fill="#191A23"/>
</svg>
