<svg width="48" height="48" viewBox="0 0 48 48" fill="none" xmlns="http://www.w3.org/2000/svg">
<path opacity="0.4" d="M21.4998 4.90014C22.8798 3.72014 25.1397 3.72014 26.5397 4.90014L29.6998 7.62011C30.2998 8.14011 31.4197 8.56017 32.2197 8.56017H35.6198C37.7398 8.56017 39.4797 10.3002 39.4797 12.4202V15.8201C39.4797 16.6001 39.8997 17.7401 40.4197 18.3401L43.1398 21.5001C44.3198 22.8801 44.3198 25.1402 43.1398 26.5402L40.4197 29.7001C39.8997 30.3001 39.4797 31.4201 39.4797 32.2201V35.6201C39.4797 37.7401 37.7398 39.4801 35.6198 39.4801H32.2197C31.4397 39.4801 30.2998 39.9002 29.6998 40.4202L26.5397 43.1401C25.1597 44.3201 22.8998 44.3201 21.4998 43.1401L18.3398 40.4202C17.7398 39.9002 16.6198 39.4801 15.8198 39.4801H12.3597C10.2397 39.4801 8.49976 37.7401 8.49976 35.6201V32.2001C8.49976 31.4201 8.07978 30.3001 7.57978 29.7001L4.87977 26.5201C3.71977 25.1401 3.71977 22.9001 4.87977 21.5201L7.57978 18.3401C8.07978 17.7401 8.49976 16.6201 8.49976 15.8401V12.4202C8.49976 10.3002 10.2397 8.56017 12.3597 8.56017H15.8198C16.5998 8.56017 17.7398 8.14011 18.3398 7.62011L21.4998 4.90014Z" fill="#191A23"/>
<path d="M33.1597 22.14C32.7797 21.6 32.1397 21.3 31.3797 21.3H27.4797C27.2197 21.3 26.9797 21.2 26.8197 21C26.6597 20.8 26.5797 20.54 26.6197 20.26L27.0997 17.14C27.2997 16.22 26.6797 15.1599 25.7597 14.8599C24.8997 14.5399 23.8797 14.9799 23.4797 15.5799L19.5997 21.3399V20.6199C19.5997 19.2199 18.9997 18.64 17.5197 18.64H16.5397C15.0597 18.64 14.4597 19.2199 14.4597 20.6199V30.18C14.4597 31.58 15.0597 32.16 16.5397 32.16H17.5197C18.9197 32.16 19.5197 31.6199 19.5797 30.3399L22.5197 32.5999C22.9197 32.9999 23.8197 33.2199 24.4597 33.2199H28.1597C29.4397 33.2199 30.7197 32.2599 30.9997 31.0799L33.3397 23.9599C33.5997 23.3199 33.5397 22.66 33.1597 22.14Z" fill="#191A23"/>
</svg>
