<svg width="33" height="33" viewBox="0 0 33 33" fill="none" xmlns="http://www.w3.org/2000/svg">
<path d="M14.8001 6.03333V8.49996H12.8268C10.6802 8.49996 9.60018 9.57994 9.60018 11.7266V24.5H6.2002C4.29353 24.5 3.3335 23.5399 3.3335 21.6333V6.03333C3.3335 4.12666 4.29353 3.16663 6.2002 3.16663H11.9335C13.8402 3.16663 14.8001 4.12666 14.8001 6.03333Z" fill="#191A23"/>
<path opacity="0.4" d="M23.8267 11.7266V26.6067C23.8267 28.7534 22.7601 29.8333 20.6134 29.8333H12.8267C10.6801 29.8333 9.6001 28.7534 9.6001 26.6067V11.7266C9.6001 9.57998 10.6801 8.5 12.8267 8.5H20.6134C22.7601 8.5 23.8267 9.57998 23.8267 11.7266Z" fill="#191A23"/>
<path d="M30.0001 6.03333V21.6333C30.0001 23.5399 29.04 24.5 27.1334 24.5H23.8267V11.7266C23.8267 9.57994 22.7601 8.49996 20.6134 8.49996H18.5334V6.03333C18.5334 4.12666 19.4934 3.16663 21.4001 3.16663H27.1334C29.04 3.16663 30.0001 4.12666 30.0001 6.03333Z" fill="#191A23"/>
<path d="M19.3333 16.1666H14C13.4533 16.1666 13 15.7133 13 15.1666C13 14.62 13.4533 14.1666 14 14.1666H19.3333C19.88 14.1666 20.3333 14.62 20.3333 15.1666C20.3333 15.7133 19.88 16.1666 19.3333 16.1666Z" fill="#191A23"/>
<path d="M19.3333 20.1666H14C13.4533 20.1666 13 19.7133 13 19.1666C13 18.62 13.4533 18.1666 14 18.1666H19.3333C19.88 18.1666 20.3333 18.62 20.3333 19.1666C20.3333 19.7133 19.88 20.1666 19.3333 20.1666Z" fill="#191A23"/>
<path d="M17.6667 25.8334V29.8334H15.6667V25.8334C15.6667 25.2867 16.1201 24.8334 16.6667 24.8334C17.2134 24.8334 17.6667 25.2867 17.6667 25.8334Z" fill="#191A23"/>
</svg>
