<svg width="48" height="48" viewBox="0 0 48 48" fill="none" xmlns="http://www.w3.org/2000/svg">
<path opacity="0.4" d="M35.0603 15.54C34.9203 15.52 34.7803 15.52 34.6403 15.54C31.5403 15.44 29.0803 12.9 29.0803 9.78C29.0803 6.6 31.6603 4 34.8603 4C38.0403 4 40.6403 6.58 40.6403 9.78C40.6203 12.9 38.1603 15.44 35.0603 15.54Z" fill="#191A23"/>
<path opacity="0.4" d="M41.5802 29.4001C39.3402 30.9001 36.2002 31.46 33.3002 31.08C34.0602 29.44 34.4602 27.6201 34.4802 25.7001C34.4802 23.7001 34.0402 21.8001 33.2002 20.1401C36.1602 19.7401 39.3002 20.3001 41.5602 21.8001C44.7202 23.8801 44.7202 27.3001 41.5802 29.4001Z" fill="#191A23"/>
<path opacity="0.4" d="M12.8803 15.54C13.0203 15.52 13.1603 15.52 13.3003 15.54C16.4003 15.44 18.8603 12.9 18.8603 9.78C18.8603 6.6 16.2803 4 13.0803 4C9.90029 4 7.30029 6.58 7.30029 9.78C7.32029 12.9 9.78029 15.44 12.8803 15.54Z" fill="#191A23"/>
<path opacity="0.4" d="M13.1002 25.7C13.1002 27.64 13.5202 29.48 14.2802 31.14C11.4602 31.44 8.52023 30.84 6.36023 29.42C3.20023 27.32 3.20023 23.8999 6.36023 21.7999C8.50023 20.3599 11.5202 19.78 14.3602 20.1C13.5402 21.78 13.1002 23.68 13.1002 25.7Z" fill="#191A23"/>
<path d="M24.2403 31.74C24.0803 31.72 23.9003 31.72 23.7203 31.74C20.0403 31.62 17.1003 28.6 17.1003 24.88C17.1003 21.08 20.1603 18 23.9803 18C27.7803 18 30.8603 21.08 30.8603 24.88C30.8603 28.6 27.9403 31.62 24.2403 31.74Z" fill="#191A23"/>
<path d="M17.7403 35.88C14.7203 37.9 14.7203 41.22 17.7403 43.22C21.1803 45.52 26.8203 45.52 30.2603 43.22C33.2803 41.2 33.2803 37.88 30.2603 35.88C26.8403 33.58 21.2003 33.58 17.7403 35.88Z" fill="#191A23"/>
</svg>
