<svg width="32" height="32" viewBox="0 0 32 32" fill="none" xmlns="http://www.w3.org/2000/svg">
<path fill-rule="evenodd" clip-rule="evenodd" d="M21.1406 29.174C16.883 27.9655 12.8657 25.6851 9.51689 22.3362C6.16804 18.9874 3.88757 14.9701 2.67913 10.7125C2.67196 10.6872 2.66485 10.6622 2.6578 10.6374C2.46112 9.94538 2.3086 9.40875 2.30641 8.6729C2.30391 7.83187 2.57792 6.77821 2.98983 6.04495C3.6982 4.78393 5.21922 3.16786 6.53299 2.50336C7.66811 1.92922 9.00864 1.92922 10.1438 2.50336C11.2667 3.07136 12.5174 4.34278 13.2146 5.41512C14.0766 6.74091 14.0766 8.45007 13.2146 9.77585C12.9836 10.1311 12.6544 10.4598 12.2722 10.8414C12.1532 10.9602 12.0222 11.046 12.1092 11.2272C12.9729 13.0263 14.1509 14.7137 15.6451 16.208C17.1394 17.7022 18.8268 18.8802 20.6259 19.7439C20.8135 19.834 20.8874 19.7055 21.0117 19.5809C21.3933 19.1987 21.722 18.8695 22.0772 18.6385C23.403 17.7765 25.1122 17.7765 26.438 18.6385C27.4816 19.317 28.7862 20.5951 29.3497 21.7093C29.9239 22.8445 29.9239 24.185 29.3497 25.3201C28.6852 26.6339 27.0692 28.1549 25.8081 28.8633C25.0749 29.2752 24.0212 29.5492 23.1802 29.5467C22.4443 29.5445 21.9077 29.392 21.2157 29.1953C21.1909 29.1882 21.1659 29.1811 21.1406 29.174Z" fill="black"/>
</svg>
