<svg width="22" height="16" viewBox="0 0 22 16" fill="none" xmlns="http://www.w3.org/2000/svg">
<path d="M19.8889 14.5V12.3333M2.11111 14.5V12.3333M21 12.3333H1V9.08333C1 8.79602 1.11706 8.52047 1.32544 8.3173C1.53381 8.11414 1.81643 8 2.11111 8H19.8889C20.1836 8 20.4662 8.11414 20.6746 8.3173C20.8829 8.52047 21 8.79602 21 9.08333V12.3333ZM18.7778 2.58333C18.7778 2.29602 18.6607 2.02047 18.4523 1.8173C18.244 1.61414 17.9614 1.5 17.6667 1.5H4.33333C4.03865 1.5 3.75603 1.61414 3.54766 1.8173C3.33929 2.02047 3.22222 2.29602 3.22222 2.58333V8H18.7778V2.58333Z" stroke="#191A23" stroke-width="1.5" stroke-linecap="round" stroke-linejoin="round"/>
</svg>
