<svg width="32" height="33" viewBox="0 0 32 33" fill="none" xmlns="http://www.w3.org/2000/svg">
<path opacity="0.6" d="M13.4801 5.83337C13.3734 6.23337 13.3334 6.67337 13.3334 7.16671V11.1667H6.66675V8.50004C6.66675 7.03337 7.86675 5.83337 9.33341 5.83337H13.4801Z" fill="#191A23"/>
<path d="M13.3334 25.8333V11.1666H6.66675C4.00008 11.1666 2.66675 12.5 2.66675 15.1666V25.8333C2.66675 28.5 4.00008 29.8333 6.66675 29.8333H17.3334C14.6667 29.8333 13.3334 28.5 13.3334 25.8333ZM9.00008 23.1666C9.00008 23.7133 8.54675 24.1666 8.00008 24.1666C7.45341 24.1666 7.00008 23.7133 7.00008 23.1666V17.8333C7.00008 17.2866 7.45341 16.8333 8.00008 16.8333C8.54675 16.8333 9.00008 17.2866 9.00008 17.8333V23.1666Z" fill="#191A23"/>
<path opacity="0.4" d="M18.6666 29.8333H17.3333C14.6666 29.8333 13.3333 28.5 13.3333 25.8333V7.16663C13.3333 4.49996 14.6666 3.16663 17.3333 3.16663H25.3333C27.9999 3.16663 29.3333 4.49996 29.3333 7.16663V25.8333C29.3333 28.5 27.9999 29.8333 25.3333 29.8333H23.9999" fill="#191A23"/>
<path d="M24.0001 24.5V29.8333H18.6667V24.5C18.6667 23.7666 19.2667 23.1666 20.0001 23.1666H22.6667C23.4001 23.1666 24.0001 23.7666 24.0001 24.5Z" fill="#191A23"/>
<path d="M18.6667 18.8333C18.1201 18.8333 17.6667 18.38 17.6667 17.8333V11.1666C17.6667 10.62 18.1201 10.1666 18.6667 10.1666C19.2134 10.1666 19.6667 10.62 19.6667 11.1666V17.8333C19.6667 18.38 19.2134 18.8333 18.6667 18.8333Z" fill="#191A23"/>
<path d="M24 18.8333C23.4533 18.8333 23 18.38 23 17.8333V11.1666C23 10.62 23.4533 10.1666 24 10.1666C24.5467 10.1666 25 10.62 25 11.1666V17.8333C25 18.38 24.5467 18.8333 24 18.8333Z" fill="#191A23"/>
</svg>
