<svg width="14" height="12" viewBox="0 0 14 12" fill="none" xmlns="http://www.w3.org/2000/svg">
<path d="M12.9566 2.20036C12.5603 2.37105 12.1437 2.48992 11.717 2.55401C11.9165 2.51978 12.21 2.16043 12.3268 2.01498C12.5043 1.79558 12.6396 1.54511 12.7258 1.27631C12.7258 1.25635 12.7457 1.22783 12.7258 1.21357C12.7157 1.20807 12.7044 1.2052 12.693 1.2052C12.6815 1.2052 12.6703 1.20807 12.6602 1.21357C12.197 1.46466 11.7039 1.65631 11.1927 1.78397C11.1749 1.78941 11.156 1.7899 11.1379 1.78538C11.1198 1.78086 11.1033 1.7715 11.0902 1.7583C11.0504 1.71088 11.0075 1.6661 10.9619 1.62426C10.7534 1.43729 10.5169 1.28427 10.261 1.17079C9.91548 1.02892 9.54231 0.967482 9.16962 0.99111C8.808 1.01397 8.45495 1.11105 8.13241 1.27631C7.8148 1.45055 7.53566 1.68725 7.31177 1.9722C7.07625 2.26549 6.90622 2.60585 6.81311 2.9704C6.73633 3.31716 6.72762 3.67555 6.78746 4.02564C6.78746 4.08553 6.78746 4.09409 6.73617 4.08553C4.7045 3.78607 3.03756 3.06452 1.67551 1.51588C1.61567 1.44743 1.58433 1.44743 1.53589 1.51588C0.943199 2.41711 1.231 3.84311 1.97186 4.54756C2.07159 4.64168 2.17417 4.73294 2.28245 4.8185C1.94277 4.79436 1.61138 4.70223 1.30793 4.54756C1.25094 4.51048 1.2196 4.53045 1.21675 4.5989C1.20867 4.69379 1.20867 4.7892 1.21675 4.8841C1.2762 5.33887 1.45527 5.76969 1.73564 6.13249C2.016 6.49528 2.38761 6.77704 2.81245 6.94895C2.91602 6.99335 3.02393 7.0268 3.13444 7.04877C2.81998 7.11073 2.49746 7.12037 2.17987 7.07729C2.11148 7.06303 2.08584 7.1001 2.11148 7.1657C2.53035 8.3065 3.43934 8.65445 4.10611 8.84838C4.19729 8.86264 4.28848 8.86264 4.39106 8.88546C4.39106 8.88546 4.39106 8.88546 4.37396 8.90257C4.17735 9.26192 3.38235 9.50434 3.01761 9.62983C2.35188 9.86917 1.64209 9.96065 0.9375 9.89792C0.82637 9.88081 0.800725 9.88366 0.77223 9.89792C0.743736 9.91218 0.77223 9.94355 0.803575 9.97207C0.946048 10.0662 1.08852 10.1489 1.23669 10.2288C1.67781 10.4696 2.14415 10.6609 2.62724 10.7992C5.12907 11.4893 7.94435 10.9817 9.82215 9.11362C11.2982 7.64769 11.8168 5.62562 11.8168 3.60069C11.8168 3.52369 11.9108 3.47806 11.965 3.43813C12.3384 3.14691 12.6676 2.80299 12.9423 2.41711C12.9899 2.35959 13.0143 2.28636 13.0107 2.21177C13.0107 2.16899 13.0107 2.17754 12.9566 2.20036Z" fill="white"/>
</svg>
